<mxfile host="app.diagrams.net" modified="2023-02-28T19:04:52.890Z" agent="5.0 (Windows NT 10.0; Win64; x64) AppleWebKit/537.36 (KHTML, like Gecko) Chrome/110.0.0.0 Safari/537.36" etag="07o19N2u1H4ccJsqMX5R" version="20.8.23" type="github" pages="9">
  <diagram name="use case" id="gnCF1U_1sA8zgwTOJTY4">
    <mxGraphModel dx="2037" dy="763" grid="1" gridSize="10" guides="1" tooltips="1" connect="1" arrows="1" fold="1" page="1" pageScale="1" pageWidth="850" pageHeight="1100" math="0" shadow="0">
      <root>
        <mxCell id="0" />
        <mxCell id="1" parent="0" />
        <mxCell id="z1jnCZvwi2yLoUgEgZ1X-1" style="edgeStyle=orthogonalEdgeStyle;rounded=0;orthogonalLoop=1;jettySize=auto;html=1;entryX=0;entryY=0.5;entryDx=0;entryDy=0;dashed=1;" parent="1" source="z1jnCZvwi2yLoUgEgZ1X-3" target="z1jnCZvwi2yLoUgEgZ1X-85" edge="1">
          <mxGeometry relative="1" as="geometry" />
        </mxCell>
        <mxCell id="z1jnCZvwi2yLoUgEgZ1X-2" value="&amp;lt;&amp;lt;include&amp;gt;&amp;gt;" style="edgeLabel;html=1;align=center;verticalAlign=middle;resizable=0;points=[];" parent="z1jnCZvwi2yLoUgEgZ1X-1" vertex="1" connectable="0">
          <mxGeometry x="-0.1403" y="-1" relative="1" as="geometry">
            <mxPoint as="offset" />
          </mxGeometry>
        </mxCell>
        <mxCell id="z1jnCZvwi2yLoUgEgZ1X-3" value="View available parkings" style="ellipse;whiteSpace=wrap;html=1;" parent="1" vertex="1">
          <mxGeometry x="250" y="580" width="120" height="80" as="geometry" />
        </mxCell>
        <mxCell id="z1jnCZvwi2yLoUgEgZ1X-4" value="Access Account settings" style="ellipse;whiteSpace=wrap;html=1;" parent="1" vertex="1">
          <mxGeometry x="250" y="460" width="120" height="80" as="geometry" />
        </mxCell>
        <mxCell id="z1jnCZvwi2yLoUgEgZ1X-5" style="edgeStyle=orthogonalEdgeStyle;rounded=0;orthogonalLoop=1;jettySize=auto;html=1;dashed=1;exitX=0.5;exitY=0;exitDx=0;exitDy=0;entryX=0.5;entryY=1;entryDx=0;entryDy=0;" parent="1" source="z1jnCZvwi2yLoUgEgZ1X-89" target="z1jnCZvwi2yLoUgEgZ1X-7" edge="1">
          <mxGeometry relative="1" as="geometry">
            <mxPoint x="270" y="850" as="targetPoint" />
            <Array as="points" />
          </mxGeometry>
        </mxCell>
        <mxCell id="z1jnCZvwi2yLoUgEgZ1X-6" value="&amp;lt;&amp;lt;extend&amp;gt;&amp;gt;" style="edgeLabel;html=1;align=center;verticalAlign=middle;resizable=0;points=[];" parent="z1jnCZvwi2yLoUgEgZ1X-5" vertex="1" connectable="0">
          <mxGeometry x="-0.2298" y="-1" relative="1" as="geometry">
            <mxPoint as="offset" />
          </mxGeometry>
        </mxCell>
        <mxCell id="z1jnCZvwi2yLoUgEgZ1X-7" value="View fines history" style="ellipse;whiteSpace=wrap;html=1;" parent="1" vertex="1">
          <mxGeometry x="250" y="710" width="120" height="80" as="geometry" />
        </mxCell>
        <mxCell id="z1jnCZvwi2yLoUgEgZ1X-9" value="Edit car information" style="ellipse;whiteSpace=wrap;html=1;" parent="1" vertex="1">
          <mxGeometry x="577.5" y="260" width="90" height="60" as="geometry" />
        </mxCell>
        <mxCell id="z1jnCZvwi2yLoUgEgZ1X-10" style="edgeStyle=orthogonalEdgeStyle;rounded=0;orthogonalLoop=1;jettySize=auto;html=1;entryX=1;entryY=0.5;entryDx=0;entryDy=0;dashed=1;" parent="1" source="z1jnCZvwi2yLoUgEgZ1X-12" target="z1jnCZvwi2yLoUgEgZ1X-8" edge="1">
          <mxGeometry relative="1" as="geometry" />
        </mxCell>
        <mxCell id="z1jnCZvwi2yLoUgEgZ1X-11" value="&amp;lt;&amp;lt;extend&amp;gt;&amp;gt;" style="edgeLabel;html=1;align=center;verticalAlign=middle;resizable=0;points=[];" parent="z1jnCZvwi2yLoUgEgZ1X-10" vertex="1" connectable="0">
          <mxGeometry x="-0.0296" y="2" relative="1" as="geometry">
            <mxPoint as="offset" />
          </mxGeometry>
        </mxCell>
        <mxCell id="z1jnCZvwi2yLoUgEgZ1X-12" value="Remove car" style="ellipse;whiteSpace=wrap;html=1;" parent="1" vertex="1">
          <mxGeometry x="590" y="355" width="90" height="60" as="geometry" />
        </mxCell>
        <mxCell id="z1jnCZvwi2yLoUgEgZ1X-13" style="edgeStyle=orthogonalEdgeStyle;rounded=0;orthogonalLoop=1;jettySize=auto;html=1;entryX=0.5;entryY=0;entryDx=0;entryDy=0;dashed=1;" parent="1" source="z1jnCZvwi2yLoUgEgZ1X-15" target="z1jnCZvwi2yLoUgEgZ1X-8" edge="1">
          <mxGeometry relative="1" as="geometry" />
        </mxCell>
        <mxCell id="z1jnCZvwi2yLoUgEgZ1X-14" value="&amp;lt;&amp;lt;extend&amp;gt;&amp;gt;" style="edgeLabel;html=1;align=center;verticalAlign=middle;resizable=0;points=[];" parent="z1jnCZvwi2yLoUgEgZ1X-13" vertex="1" connectable="0">
          <mxGeometry x="-0.3541" y="-3" relative="1" as="geometry">
            <mxPoint as="offset" />
          </mxGeometry>
        </mxCell>
        <mxCell id="z1jnCZvwi2yLoUgEgZ1X-15" value="Add new" style="ellipse;whiteSpace=wrap;html=1;" parent="1" vertex="1">
          <mxGeometry x="392.5" y="260" width="90" height="60" as="geometry" />
        </mxCell>
        <mxCell id="z1jnCZvwi2yLoUgEgZ1X-16" value="" style="endArrow=classic;html=1;rounded=0;dashed=1;exitX=0;exitY=1;exitDx=0;exitDy=0;entryX=1;entryY=0;entryDx=0;entryDy=0;" parent="1" source="z1jnCZvwi2yLoUgEgZ1X-8" target="z1jnCZvwi2yLoUgEgZ1X-4" edge="1">
          <mxGeometry width="50" height="50" relative="1" as="geometry">
            <mxPoint x="610" y="610" as="sourcePoint" />
            <mxPoint x="660" y="560" as="targetPoint" />
          </mxGeometry>
        </mxCell>
        <mxCell id="z1jnCZvwi2yLoUgEgZ1X-17" value="" style="endArrow=classic;html=1;rounded=0;dashed=1;entryX=1;entryY=0;entryDx=0;entryDy=0;exitX=0;exitY=1;exitDx=0;exitDy=0;" parent="1" source="z1jnCZvwi2yLoUgEgZ1X-9" target="z1jnCZvwi2yLoUgEgZ1X-8" edge="1">
          <mxGeometry width="50" height="50" relative="1" as="geometry">
            <mxPoint x="517.5" y="290" as="sourcePoint" />
            <mxPoint x="567.5" y="240" as="targetPoint" />
          </mxGeometry>
        </mxCell>
        <mxCell id="z1jnCZvwi2yLoUgEgZ1X-18" value="&amp;lt;&amp;lt;extend&amp;gt;&amp;gt;" style="edgeLabel;html=1;align=center;verticalAlign=middle;resizable=0;points=[];" parent="z1jnCZvwi2yLoUgEgZ1X-17" vertex="1" connectable="0">
          <mxGeometry x="-0.0315" y="4" relative="1" as="geometry">
            <mxPoint as="offset" />
          </mxGeometry>
        </mxCell>
        <mxCell id="z1jnCZvwi2yLoUgEgZ1X-19" value="Plate number" style="ellipse;whiteSpace=wrap;html=1;" parent="1" vertex="1">
          <mxGeometry x="395" y="150" width="85" height="50" as="geometry" />
        </mxCell>
        <mxCell id="z1jnCZvwi2yLoUgEgZ1X-20" value="Liscence" style="ellipse;whiteSpace=wrap;html=1;" parent="1" vertex="1">
          <mxGeometry x="490" y="150" width="85" height="50" as="geometry" />
        </mxCell>
        <mxCell id="z1jnCZvwi2yLoUgEgZ1X-21" value="Car&#39;s registeration card" style="ellipse;whiteSpace=wrap;html=1;" parent="1" vertex="1">
          <mxGeometry x="580" y="150" width="85" height="50" as="geometry" />
        </mxCell>
        <mxCell id="z1jnCZvwi2yLoUgEgZ1X-22" value="" style="endArrow=classic;html=1;rounded=0;dashed=1;exitX=0.5;exitY=1;exitDx=0;exitDy=0;entryX=0.5;entryY=0;entryDx=0;entryDy=0;" parent="1" source="z1jnCZvwi2yLoUgEgZ1X-19" target="z1jnCZvwi2yLoUgEgZ1X-15" edge="1">
          <mxGeometry width="50" height="50" relative="1" as="geometry">
            <mxPoint x="510" y="270" as="sourcePoint" />
            <mxPoint x="445" y="270" as="targetPoint" />
          </mxGeometry>
        </mxCell>
        <mxCell id="z1jnCZvwi2yLoUgEgZ1X-23" value="&amp;lt;&amp;lt;include&amp;gt;&amp;gt;" style="edgeLabel;html=1;align=center;verticalAlign=middle;resizable=0;points=[];fontSize=9;" parent="z1jnCZvwi2yLoUgEgZ1X-22" vertex="1" connectable="0">
          <mxGeometry x="-0.0094" y="1" relative="1" as="geometry">
            <mxPoint x="-1" as="offset" />
          </mxGeometry>
        </mxCell>
        <mxCell id="z1jnCZvwi2yLoUgEgZ1X-24" value="" style="endArrow=classic;html=1;rounded=0;dashed=1;entryX=0.269;entryY=0.052;entryDx=0;entryDy=0;exitX=0.628;exitY=0.997;exitDx=0;exitDy=0;entryPerimeter=0;exitPerimeter=0;" parent="1" source="z1jnCZvwi2yLoUgEgZ1X-20" target="z1jnCZvwi2yLoUgEgZ1X-9" edge="1">
          <mxGeometry width="50" height="50" relative="1" as="geometry">
            <mxPoint x="515" y="350" as="sourcePoint" />
            <mxPoint x="565" y="300" as="targetPoint" />
          </mxGeometry>
        </mxCell>
        <mxCell id="z1jnCZvwi2yLoUgEgZ1X-25" value="&amp;lt;&amp;lt;extend&amp;gt;&amp;gt;" style="edgeLabel;html=1;align=center;verticalAlign=middle;resizable=0;points=[];fontSize=7;" parent="z1jnCZvwi2yLoUgEgZ1X-24" vertex="1" connectable="0">
          <mxGeometry x="0.2377" relative="1" as="geometry">
            <mxPoint as="offset" />
          </mxGeometry>
        </mxCell>
        <mxCell id="z1jnCZvwi2yLoUgEgZ1X-26" value="" style="endArrow=classic;html=1;rounded=0;dashed=1;entryX=0.5;entryY=0;entryDx=0;entryDy=0;exitX=0.5;exitY=1;exitDx=0;exitDy=0;" parent="1" source="z1jnCZvwi2yLoUgEgZ1X-21" target="z1jnCZvwi2yLoUgEgZ1X-9" edge="1">
          <mxGeometry width="50" height="50" relative="1" as="geometry">
            <mxPoint x="515" y="350" as="sourcePoint" />
            <mxPoint x="565" y="300" as="targetPoint" />
          </mxGeometry>
        </mxCell>
        <mxCell id="z1jnCZvwi2yLoUgEgZ1X-27" value="&amp;lt;&amp;lt;extend&amp;gt;&amp;gt;" style="edgeLabel;html=1;align=center;verticalAlign=middle;resizable=0;points=[];fontSize=7;" parent="z1jnCZvwi2yLoUgEgZ1X-26" vertex="1" connectable="0">
          <mxGeometry x="-0.0068" y="1" relative="1" as="geometry">
            <mxPoint as="offset" />
          </mxGeometry>
        </mxCell>
        <mxCell id="z1jnCZvwi2yLoUgEgZ1X-28" value="" style="endArrow=classic;html=1;rounded=0;dashed=1;entryX=0.911;entryY=0.235;entryDx=0;entryDy=0;entryPerimeter=0;exitX=0;exitY=1;exitDx=0;exitDy=0;" parent="1" source="z1jnCZvwi2yLoUgEgZ1X-21" target="z1jnCZvwi2yLoUgEgZ1X-15" edge="1">
          <mxGeometry width="50" height="50" relative="1" as="geometry">
            <mxPoint x="505" y="270" as="sourcePoint" />
            <mxPoint x="555" y="220" as="targetPoint" />
          </mxGeometry>
        </mxCell>
        <mxCell id="z1jnCZvwi2yLoUgEgZ1X-29" value="&amp;lt;&amp;lt;include&amp;gt;&amp;gt;" style="edgeLabel;html=1;align=center;verticalAlign=middle;resizable=0;points=[];fontSize=8;" parent="z1jnCZvwi2yLoUgEgZ1X-28" vertex="1" connectable="0">
          <mxGeometry x="0.7174" y="-1" relative="1" as="geometry">
            <mxPoint x="9" y="-2" as="offset" />
          </mxGeometry>
        </mxCell>
        <mxCell id="z1jnCZvwi2yLoUgEgZ1X-30" value="" style="endArrow=classic;html=1;rounded=0;dashed=1;entryX=0.628;entryY=0.044;entryDx=0;entryDy=0;entryPerimeter=0;exitX=0.382;exitY=0.99;exitDx=0;exitDy=0;exitPerimeter=0;" parent="1" source="z1jnCZvwi2yLoUgEgZ1X-20" target="z1jnCZvwi2yLoUgEgZ1X-15" edge="1">
          <mxGeometry width="50" height="50" relative="1" as="geometry">
            <mxPoint x="495" y="250" as="sourcePoint" />
            <mxPoint x="545" y="200" as="targetPoint" />
          </mxGeometry>
        </mxCell>
        <mxCell id="z1jnCZvwi2yLoUgEgZ1X-31" value="&amp;lt;&amp;lt;include&amp;gt;&amp;gt;" style="edgeLabel;html=1;align=center;verticalAlign=middle;resizable=0;points=[];fontSize=8;" parent="z1jnCZvwi2yLoUgEgZ1X-30" vertex="1" connectable="0">
          <mxGeometry x="0.2433" y="1" relative="1" as="geometry">
            <mxPoint as="offset" />
          </mxGeometry>
        </mxCell>
        <mxCell id="z1jnCZvwi2yLoUgEgZ1X-32" value="" style="endArrow=classic;html=1;rounded=0;dashed=1;entryX=0.076;entryY=0.244;entryDx=0;entryDy=0;entryPerimeter=0;" parent="1" target="z1jnCZvwi2yLoUgEgZ1X-9" edge="1">
          <mxGeometry width="50" height="50" relative="1" as="geometry">
            <mxPoint x="445" y="200" as="sourcePoint" />
            <mxPoint x="365" y="220" as="targetPoint" />
          </mxGeometry>
        </mxCell>
        <mxCell id="z1jnCZvwi2yLoUgEgZ1X-33" value="&amp;lt;&amp;lt;extend&amp;gt;&amp;gt;" style="edgeLabel;html=1;align=center;verticalAlign=middle;resizable=0;points=[];fontSize=7;" parent="z1jnCZvwi2yLoUgEgZ1X-32" vertex="1" connectable="0">
          <mxGeometry x="0.3779" y="-1" relative="1" as="geometry">
            <mxPoint x="10" y="8" as="offset" />
          </mxGeometry>
        </mxCell>
        <mxCell id="z1jnCZvwi2yLoUgEgZ1X-34" value="View un-paid violations" style="ellipse;whiteSpace=wrap;html=1;" parent="1" vertex="1">
          <mxGeometry x="400" y="810" width="90" height="70" as="geometry" />
        </mxCell>
        <mxCell id="z1jnCZvwi2yLoUgEgZ1X-35" value="" style="endArrow=classic;html=1;rounded=0;dashed=1;exitX=0;exitY=0;exitDx=0;exitDy=0;entryX=1;entryY=1;entryDx=0;entryDy=0;" parent="1" source="z1jnCZvwi2yLoUgEgZ1X-34" target="z1jnCZvwi2yLoUgEgZ1X-7" edge="1">
          <mxGeometry width="50" height="50" relative="1" as="geometry">
            <mxPoint x="370" y="860" as="sourcePoint" />
            <mxPoint x="460" y="790" as="targetPoint" />
          </mxGeometry>
        </mxCell>
        <mxCell id="z1jnCZvwi2yLoUgEgZ1X-36" value="&amp;lt;&amp;lt;extend&amp;gt;&amp;gt;" style="edgeLabel;html=1;align=center;verticalAlign=middle;resizable=0;points=[];" parent="z1jnCZvwi2yLoUgEgZ1X-35" vertex="1" connectable="0">
          <mxGeometry x="-0.228" y="-1" relative="1" as="geometry">
            <mxPoint as="offset" />
          </mxGeometry>
        </mxCell>
        <mxCell id="z1jnCZvwi2yLoUgEgZ1X-37" value="" style="edgeStyle=orthogonalEdgeStyle;rounded=0;orthogonalLoop=1;jettySize=auto;html=1;dashed=1;fontSize=12;" parent="1" source="z1jnCZvwi2yLoUgEgZ1X-39" target="z1jnCZvwi2yLoUgEgZ1X-34" edge="1">
          <mxGeometry relative="1" as="geometry" />
        </mxCell>
        <mxCell id="z1jnCZvwi2yLoUgEgZ1X-38" value="&amp;lt;&amp;lt;extend&amp;gt;&amp;gt;" style="edgeLabel;html=1;align=center;verticalAlign=middle;resizable=0;points=[];fontSize=9;" parent="z1jnCZvwi2yLoUgEgZ1X-37" vertex="1" connectable="0">
          <mxGeometry x="-0.1216" y="1" relative="1" as="geometry">
            <mxPoint x="-1" y="-16" as="offset" />
          </mxGeometry>
        </mxCell>
        <mxCell id="z1jnCZvwi2yLoUgEgZ1X-39" value="Object" style="ellipse;whiteSpace=wrap;html=1;" parent="1" vertex="1">
          <mxGeometry x="545" y="812.5" width="85" height="65" as="geometry" />
        </mxCell>
        <mxCell id="z1jnCZvwi2yLoUgEgZ1X-40" value="" style="endArrow=classic;html=1;rounded=0;dashed=1;entryX=0;entryY=0;entryDx=0;entryDy=0;exitX=1;exitY=1;exitDx=0;exitDy=0;" parent="1" source="z1jnCZvwi2yLoUgEgZ1X-4" target="z1jnCZvwi2yLoUgEgZ1X-85" edge="1">
          <mxGeometry width="50" height="50" relative="1" as="geometry">
            <mxPoint x="420" y="560" as="sourcePoint" />
            <mxPoint x="470" y="510" as="targetPoint" />
          </mxGeometry>
        </mxCell>
        <mxCell id="z1jnCZvwi2yLoUgEgZ1X-41" value="&amp;lt;&amp;lt;include&amp;gt;&amp;gt;" style="edgeLabel;html=1;align=center;verticalAlign=middle;resizable=0;points=[];" parent="z1jnCZvwi2yLoUgEgZ1X-40" vertex="1" connectable="0">
          <mxGeometry x="-0.0267" y="-2" relative="1" as="geometry">
            <mxPoint as="offset" />
          </mxGeometry>
        </mxCell>
        <mxCell id="z1jnCZvwi2yLoUgEgZ1X-42" value="" style="endArrow=classic;html=1;rounded=0;dashed=1;entryX=0;entryY=1;entryDx=0;entryDy=0;exitX=1;exitY=0;exitDx=0;exitDy=0;" parent="1" source="z1jnCZvwi2yLoUgEgZ1X-7" target="z1jnCZvwi2yLoUgEgZ1X-85" edge="1">
          <mxGeometry width="50" height="50" relative="1" as="geometry">
            <mxPoint x="360" y="720" as="sourcePoint" />
            <mxPoint x="410" y="670" as="targetPoint" />
          </mxGeometry>
        </mxCell>
        <mxCell id="z1jnCZvwi2yLoUgEgZ1X-43" value="&amp;lt;&amp;lt;include&amp;gt;&amp;gt;" style="edgeLabel;html=1;align=center;verticalAlign=middle;resizable=0;points=[];" parent="z1jnCZvwi2yLoUgEgZ1X-42" vertex="1" connectable="0">
          <mxGeometry x="-0.037" relative="1" as="geometry">
            <mxPoint as="offset" />
          </mxGeometry>
        </mxCell>
        <mxCell id="z1jnCZvwi2yLoUgEgZ1X-44" style="edgeStyle=orthogonalEdgeStyle;rounded=0;orthogonalLoop=1;jettySize=auto;html=1;entryX=0;entryY=0.5;entryDx=0;entryDy=0;dashed=1;" parent="1" source="z1jnCZvwi2yLoUgEgZ1X-50" target="z1jnCZvwi2yLoUgEgZ1X-7" edge="1">
          <mxGeometry relative="1" as="geometry" />
        </mxCell>
        <mxCell id="z1jnCZvwi2yLoUgEgZ1X-45" value="&amp;lt;&amp;lt;participate&amp;gt;&amp;gt;" style="edgeLabel;html=1;align=center;verticalAlign=middle;resizable=0;points=[];" parent="z1jnCZvwi2yLoUgEgZ1X-44" vertex="1" connectable="0">
          <mxGeometry x="-0.4515" y="2" relative="1" as="geometry">
            <mxPoint x="-1" as="offset" />
          </mxGeometry>
        </mxCell>
        <mxCell id="z1jnCZvwi2yLoUgEgZ1X-46" style="edgeStyle=orthogonalEdgeStyle;rounded=0;orthogonalLoop=1;jettySize=auto;html=1;exitX=1;exitY=0.5;exitDx=0;exitDy=0;exitPerimeter=0;entryX=1;entryY=0.5;entryDx=0;entryDy=0;dashed=1;" parent="1" source="z1jnCZvwi2yLoUgEgZ1X-50" target="z1jnCZvwi2yLoUgEgZ1X-61" edge="1">
          <mxGeometry relative="1" as="geometry">
            <Array as="points">
              <mxPoint x="1250" y="1050" />
              <mxPoint x="1250" y="710" />
              <mxPoint x="1100" y="710" />
            </Array>
          </mxGeometry>
        </mxCell>
        <mxCell id="z1jnCZvwi2yLoUgEgZ1X-47" style="edgeStyle=orthogonalEdgeStyle;rounded=0;orthogonalLoop=1;jettySize=auto;html=1;exitX=1;exitY=0.5;exitDx=0;exitDy=0;exitPerimeter=0;entryX=1;entryY=0.5;entryDx=0;entryDy=0;dashed=1;" parent="1" source="z1jnCZvwi2yLoUgEgZ1X-50" target="z1jnCZvwi2yLoUgEgZ1X-60" edge="1">
          <mxGeometry relative="1" as="geometry">
            <Array as="points">
              <mxPoint x="1250" y="1050" />
              <mxPoint x="1250" y="490" />
            </Array>
          </mxGeometry>
        </mxCell>
        <mxCell id="z1jnCZvwi2yLoUgEgZ1X-48" value="&amp;lt;&amp;lt;participate&amp;gt;&amp;gt;" style="edgeLabel;html=1;align=center;verticalAlign=middle;resizable=0;points=[];" parent="z1jnCZvwi2yLoUgEgZ1X-47" vertex="1" connectable="0">
          <mxGeometry x="-0.4318" y="3" relative="1" as="geometry">
            <mxPoint x="-1" as="offset" />
          </mxGeometry>
        </mxCell>
        <mxCell id="z1jnCZvwi2yLoUgEgZ1X-49" style="edgeStyle=orthogonalEdgeStyle;rounded=0;orthogonalLoop=1;jettySize=auto;html=1;entryX=0;entryY=0.5;entryDx=0;entryDy=0;dashed=1;" parent="1" source="z1jnCZvwi2yLoUgEgZ1X-50" target="z1jnCZvwi2yLoUgEgZ1X-3" edge="1">
          <mxGeometry relative="1" as="geometry" />
        </mxCell>
        <mxCell id="z1jnCZvwi2yLoUgEgZ1X-50" value="" style="shape=cylinder3;whiteSpace=wrap;html=1;boundedLbl=1;backgroundOutline=1;size=15;fontSize=9;" parent="1" vertex="1">
          <mxGeometry x="830" y="1010" width="60" height="80" as="geometry" />
        </mxCell>
        <mxCell id="z1jnCZvwi2yLoUgEgZ1X-51" style="edgeStyle=orthogonalEdgeStyle;rounded=0;orthogonalLoop=1;jettySize=auto;html=1;entryX=1;entryY=0.5;entryDx=0;entryDy=0;dashed=1;" parent="1" source="z1jnCZvwi2yLoUgEgZ1X-53" target="z1jnCZvwi2yLoUgEgZ1X-39" edge="1">
          <mxGeometry relative="1" as="geometry" />
        </mxCell>
        <mxCell id="z1jnCZvwi2yLoUgEgZ1X-52" value="&amp;lt;&amp;lt;extend&amp;gt;&amp;gt;" style="edgeLabel;html=1;align=center;verticalAlign=middle;resizable=0;points=[];" parent="z1jnCZvwi2yLoUgEgZ1X-51" vertex="1" connectable="0">
          <mxGeometry x="-0.0657" relative="1" as="geometry">
            <mxPoint as="offset" />
          </mxGeometry>
        </mxCell>
        <mxCell id="z1jnCZvwi2yLoUgEgZ1X-53" value="Send objection" style="ellipse;whiteSpace=wrap;html=1;" parent="1" vertex="1">
          <mxGeometry x="670" y="765" width="85" height="65" as="geometry" />
        </mxCell>
        <mxCell id="z1jnCZvwi2yLoUgEgZ1X-54" style="edgeStyle=orthogonalEdgeStyle;rounded=0;orthogonalLoop=1;jettySize=auto;html=1;entryX=1;entryY=0.5;entryDx=0;entryDy=0;dashed=1;" parent="1" source="z1jnCZvwi2yLoUgEgZ1X-56" target="z1jnCZvwi2yLoUgEgZ1X-39" edge="1">
          <mxGeometry relative="1" as="geometry" />
        </mxCell>
        <mxCell id="z1jnCZvwi2yLoUgEgZ1X-55" value="&amp;lt;&amp;lt;extend&amp;gt;&amp;gt;" style="edgeLabel;html=1;align=center;verticalAlign=middle;resizable=0;points=[];" parent="z1jnCZvwi2yLoUgEgZ1X-54" vertex="1" connectable="0">
          <mxGeometry x="-0.1447" y="-1" relative="1" as="geometry">
            <mxPoint as="offset" />
          </mxGeometry>
        </mxCell>
        <mxCell id="z1jnCZvwi2yLoUgEgZ1X-56" value="Cencel objection" style="ellipse;whiteSpace=wrap;html=1;" parent="1" vertex="1">
          <mxGeometry x="670" y="855" width="95" height="60" as="geometry" />
        </mxCell>
        <mxCell id="z1jnCZvwi2yLoUgEgZ1X-57" value="Actor" style="shape=umlActor;verticalLabelPosition=bottom;verticalAlign=top;html=1;outlineConnect=0;" parent="1" vertex="1">
          <mxGeometry x="1300" y="530" width="30" height="60" as="geometry" />
        </mxCell>
        <mxCell id="z1jnCZvwi2yLoUgEgZ1X-58" value="Actor" style="shape=umlActor;verticalLabelPosition=bottom;verticalAlign=top;html=1;outlineConnect=0;labelBackgroundColor=none;" parent="1" vertex="1">
          <mxGeometry x="120" y="625" width="30" height="60" as="geometry" />
        </mxCell>
        <mxCell id="z1jnCZvwi2yLoUgEgZ1X-59" value="####&amp;nbsp;" style="swimlane;whiteSpace=wrap;html=1;" parent="1" vertex="1">
          <mxGeometry x="195" y="120" width="1035" height="870" as="geometry" />
        </mxCell>
        <mxCell id="z1jnCZvwi2yLoUgEgZ1X-60" value="View pending fines" style="ellipse;whiteSpace=wrap;html=1;" parent="z1jnCZvwi2yLoUgEgZ1X-59" vertex="1">
          <mxGeometry x="785" y="330" width="120" height="80" as="geometry" />
        </mxCell>
        <mxCell id="z1jnCZvwi2yLoUgEgZ1X-61" value="View objection requests" style="ellipse;whiteSpace=wrap;html=1;" parent="z1jnCZvwi2yLoUgEgZ1X-59" vertex="1">
          <mxGeometry x="775" y="545" width="120" height="80" as="geometry" />
        </mxCell>
        <mxCell id="z1jnCZvwi2yLoUgEgZ1X-62" value="Login as Authority" style="ellipse;whiteSpace=wrap;html=1;" parent="z1jnCZvwi2yLoUgEgZ1X-59" vertex="1">
          <mxGeometry x="605" y="440" width="120" height="85" as="geometry" />
        </mxCell>
        <mxCell id="z1jnCZvwi2yLoUgEgZ1X-63" value="" style="endArrow=classic;html=1;rounded=0;dashed=1;entryX=1;entryY=0;entryDx=0;entryDy=0;exitX=0;exitY=1;exitDx=0;exitDy=0;" parent="z1jnCZvwi2yLoUgEgZ1X-59" source="z1jnCZvwi2yLoUgEgZ1X-60" target="z1jnCZvwi2yLoUgEgZ1X-62" edge="1">
          <mxGeometry width="50" height="50" relative="1" as="geometry">
            <mxPoint x="765" y="505" as="sourcePoint" />
            <mxPoint x="815" y="455" as="targetPoint" />
          </mxGeometry>
        </mxCell>
        <mxCell id="z1jnCZvwi2yLoUgEgZ1X-64" value="&amp;lt;&amp;lt;include&amp;gt;&amp;gt;" style="edgeLabel;html=1;align=center;verticalAlign=middle;resizable=0;points=[];" parent="z1jnCZvwi2yLoUgEgZ1X-63" vertex="1" connectable="0">
          <mxGeometry x="0.1169" y="-4" relative="1" as="geometry">
            <mxPoint as="offset" />
          </mxGeometry>
        </mxCell>
        <mxCell id="z1jnCZvwi2yLoUgEgZ1X-65" value="" style="endArrow=classic;html=1;rounded=0;dashed=1;entryX=1;entryY=1;entryDx=0;entryDy=0;exitX=0;exitY=0;exitDx=0;exitDy=0;" parent="z1jnCZvwi2yLoUgEgZ1X-59" source="z1jnCZvwi2yLoUgEgZ1X-61" target="z1jnCZvwi2yLoUgEgZ1X-62" edge="1">
          <mxGeometry width="50" height="50" relative="1" as="geometry">
            <mxPoint x="685" y="605" as="sourcePoint" />
            <mxPoint x="735" y="555" as="targetPoint" />
          </mxGeometry>
        </mxCell>
        <mxCell id="z1jnCZvwi2yLoUgEgZ1X-66" value="&amp;lt;&amp;lt;include&amp;gt;&amp;gt;" style="edgeLabel;html=1;align=center;verticalAlign=middle;resizable=0;points=[];" parent="z1jnCZvwi2yLoUgEgZ1X-65" vertex="1" connectable="0">
          <mxGeometry x="-0.2083" y="-2" relative="1" as="geometry">
            <mxPoint as="offset" />
          </mxGeometry>
        </mxCell>
        <mxCell id="z1jnCZvwi2yLoUgEgZ1X-73" style="edgeStyle=orthogonalEdgeStyle;rounded=0;orthogonalLoop=1;jettySize=auto;html=1;exitX=0.5;exitY=0;exitDx=0;exitDy=0;entryX=0;entryY=1;entryDx=0;entryDy=0;dashed=1;" parent="z1jnCZvwi2yLoUgEgZ1X-59" source="z1jnCZvwi2yLoUgEgZ1X-75" target="z1jnCZvwi2yLoUgEgZ1X-61" edge="1">
          <mxGeometry relative="1" as="geometry" />
        </mxCell>
        <mxCell id="z1jnCZvwi2yLoUgEgZ1X-74" value="&amp;lt;&amp;lt;extend&amp;gt;&amp;gt;" style="edgeLabel;html=1;align=center;verticalAlign=middle;resizable=0;points=[];" parent="z1jnCZvwi2yLoUgEgZ1X-73" vertex="1" connectable="0">
          <mxGeometry x="-0.2302" y="4" relative="1" as="geometry">
            <mxPoint as="offset" />
          </mxGeometry>
        </mxCell>
        <mxCell id="z1jnCZvwi2yLoUgEgZ1X-75" value="Remove the Fine" style="ellipse;whiteSpace=wrap;html=1;" parent="z1jnCZvwi2yLoUgEgZ1X-59" vertex="1">
          <mxGeometry x="655" y="685" width="120" height="80" as="geometry" />
        </mxCell>
        <mxCell id="z1jnCZvwi2yLoUgEgZ1X-76" style="edgeStyle=orthogonalEdgeStyle;rounded=0;orthogonalLoop=1;jettySize=auto;html=1;exitX=0.5;exitY=0;exitDx=0;exitDy=0;entryX=1;entryY=1;entryDx=0;entryDy=0;dashed=1;" parent="z1jnCZvwi2yLoUgEgZ1X-59" source="z1jnCZvwi2yLoUgEgZ1X-78" target="z1jnCZvwi2yLoUgEgZ1X-61" edge="1">
          <mxGeometry relative="1" as="geometry" />
        </mxCell>
        <mxCell id="z1jnCZvwi2yLoUgEgZ1X-77" value="&amp;lt;&amp;lt;extend&amp;gt;&amp;gt;" style="edgeLabel;html=1;align=center;verticalAlign=middle;resizable=0;points=[];" parent="z1jnCZvwi2yLoUgEgZ1X-76" vertex="1" connectable="0">
          <mxGeometry x="-0.0352" relative="1" as="geometry">
            <mxPoint as="offset" />
          </mxGeometry>
        </mxCell>
        <mxCell id="z1jnCZvwi2yLoUgEgZ1X-78" value="Reject a request" style="ellipse;whiteSpace=wrap;html=1;" parent="z1jnCZvwi2yLoUgEgZ1X-59" vertex="1">
          <mxGeometry x="905" y="685" width="120" height="80" as="geometry" />
        </mxCell>
        <mxCell id="z1jnCZvwi2yLoUgEgZ1X-79" value="Student ID" style="ellipse;whiteSpace=wrap;html=1;" parent="z1jnCZvwi2yLoUgEgZ1X-59" vertex="1">
          <mxGeometry x="735" y="220" width="90" height="50" as="geometry" />
        </mxCell>
        <mxCell id="z1jnCZvwi2yLoUgEgZ1X-80" value="Violation Evidence" style="ellipse;whiteSpace=wrap;html=1;fontSize=12;" parent="z1jnCZvwi2yLoUgEgZ1X-59" vertex="1">
          <mxGeometry x="885" y="217.5" width="90" height="55" as="geometry" />
        </mxCell>
        <mxCell id="z1jnCZvwi2yLoUgEgZ1X-81" value="" style="endArrow=classic;html=1;rounded=0;dashed=1;fontSize=12;entryX=0.314;entryY=-0.004;entryDx=0;entryDy=0;exitX=0.5;exitY=1;exitDx=0;exitDy=0;entryPerimeter=0;" parent="z1jnCZvwi2yLoUgEgZ1X-59" source="z1jnCZvwi2yLoUgEgZ1X-79" target="z1jnCZvwi2yLoUgEgZ1X-60" edge="1">
          <mxGeometry width="50" height="50" relative="1" as="geometry">
            <mxPoint x="655" y="225" as="sourcePoint" />
            <mxPoint x="712.5735931288039" y="206.71572875253594" as="targetPoint" />
          </mxGeometry>
        </mxCell>
        <mxCell id="z1jnCZvwi2yLoUgEgZ1X-82" value="&amp;lt;&amp;lt;include&amp;gt;&amp;gt;" style="edgeLabel;html=1;align=center;verticalAlign=middle;resizable=0;points=[];fontSize=12;" parent="z1jnCZvwi2yLoUgEgZ1X-81" vertex="1" connectable="0">
          <mxGeometry x="-0.0427" y="-5" relative="1" as="geometry">
            <mxPoint as="offset" />
          </mxGeometry>
        </mxCell>
        <mxCell id="z1jnCZvwi2yLoUgEgZ1X-83" value="" style="endArrow=classic;html=1;rounded=0;dashed=1;fontSize=12;exitX=0.292;exitY=0.977;exitDx=0;exitDy=0;exitPerimeter=0;entryX=0.719;entryY=0.032;entryDx=0;entryDy=0;entryPerimeter=0;" parent="z1jnCZvwi2yLoUgEgZ1X-59" source="z1jnCZvwi2yLoUgEgZ1X-80" target="z1jnCZvwi2yLoUgEgZ1X-60" edge="1">
          <mxGeometry width="50" height="50" relative="1" as="geometry">
            <mxPoint x="735" y="165" as="sourcePoint" />
            <mxPoint x="885" y="340" as="targetPoint" />
          </mxGeometry>
        </mxCell>
        <mxCell id="z1jnCZvwi2yLoUgEgZ1X-84" value="&amp;lt;&amp;lt;include&amp;gt;&amp;gt;" style="edgeLabel;html=1;align=center;verticalAlign=middle;resizable=0;points=[];fontSize=12;" parent="z1jnCZvwi2yLoUgEgZ1X-83" vertex="1" connectable="0">
          <mxGeometry x="-0.1321" y="-6" relative="1" as="geometry">
            <mxPoint as="offset" />
          </mxGeometry>
        </mxCell>
        <mxCell id="z1jnCZvwi2yLoUgEgZ1X-85" value="Login As student" style="ellipse;whiteSpace=wrap;html=1;" parent="z1jnCZvwi2yLoUgEgZ1X-59" vertex="1">
          <mxGeometry x="395" y="455" width="130" height="90" as="geometry" />
        </mxCell>
        <mxCell id="z1jnCZvwi2yLoUgEgZ1X-86" value="View black points" style="ellipse;whiteSpace=wrap;html=1;" parent="z1jnCZvwi2yLoUgEgZ1X-59" vertex="1">
          <mxGeometry x="155" y="755" width="90" height="60" as="geometry" />
        </mxCell>
        <mxCell id="z1jnCZvwi2yLoUgEgZ1X-87" value="" style="endArrow=classic;html=1;rounded=0;dashed=1;exitX=0;exitY=0;exitDx=0;exitDy=0;" parent="z1jnCZvwi2yLoUgEgZ1X-59" source="z1jnCZvwi2yLoUgEgZ1X-86" edge="1">
          <mxGeometry width="50" height="50" relative="1" as="geometry">
            <mxPoint x="215" y="850" as="sourcePoint" />
            <mxPoint x="135" y="670" as="targetPoint" />
          </mxGeometry>
        </mxCell>
        <mxCell id="z1jnCZvwi2yLoUgEgZ1X-88" value="&amp;lt;&amp;lt;extend&amp;gt;&amp;gt;" style="edgeLabel;html=1;align=center;verticalAlign=middle;resizable=0;points=[];" parent="z1jnCZvwi2yLoUgEgZ1X-87" vertex="1" connectable="0">
          <mxGeometry x="-0.0201" y="1" relative="1" as="geometry">
            <mxPoint x="4" y="17" as="offset" />
          </mxGeometry>
        </mxCell>
        <mxCell id="z1jnCZvwi2yLoUgEgZ1X-89" value="view paid violations" style="ellipse;whiteSpace=wrap;html=1;" parent="z1jnCZvwi2yLoUgEgZ1X-59" vertex="1">
          <mxGeometry x="55" y="755" width="90" height="70" as="geometry" />
        </mxCell>
        <mxCell id="z1jnCZvwi2yLoUgEgZ1X-8" value="Modify regestired cars" style="ellipse;whiteSpace=wrap;html=1;" parent="z1jnCZvwi2yLoUgEgZ1X-59" vertex="1">
          <mxGeometry x="197.5" y="240" width="92.5" height="60" as="geometry" />
        </mxCell>
        <mxCell id="z1jnCZvwi2yLoUgEgZ1X-90" value="" style="endArrow=classic;html=1;rounded=0;dashed=1;entryX=0;entryY=0.5;entryDx=0;entryDy=0;exitX=1;exitY=0.3333333333333333;exitDx=0;exitDy=0;exitPerimeter=0;" parent="1" source="z1jnCZvwi2yLoUgEgZ1X-58" target="z1jnCZvwi2yLoUgEgZ1X-4" edge="1">
          <mxGeometry width="50" height="50" relative="1" as="geometry">
            <mxPoint x="150" y="650" as="sourcePoint" />
            <mxPoint x="200" y="600" as="targetPoint" />
          </mxGeometry>
        </mxCell>
        <mxCell id="z1jnCZvwi2yLoUgEgZ1X-91" value="" style="endArrow=classic;html=1;rounded=0;dashed=1;exitX=1;exitY=0.3333333333333333;exitDx=0;exitDy=0;exitPerimeter=0;" parent="1" source="z1jnCZvwi2yLoUgEgZ1X-58" edge="1">
          <mxGeometry width="50" height="50" relative="1" as="geometry">
            <mxPoint x="160" y="710" as="sourcePoint" />
            <mxPoint x="260" y="730" as="targetPoint" />
          </mxGeometry>
        </mxCell>
        <mxCell id="z1jnCZvwi2yLoUgEgZ1X-92" value="" style="endArrow=classic;html=1;rounded=0;dashed=1;exitX=1;exitY=0.3333333333333333;exitDx=0;exitDy=0;exitPerimeter=0;" parent="1" source="z1jnCZvwi2yLoUgEgZ1X-58" edge="1">
          <mxGeometry width="50" height="50" relative="1" as="geometry">
            <mxPoint x="190" y="670" as="sourcePoint" />
            <mxPoint x="260" y="640" as="targetPoint" />
          </mxGeometry>
        </mxCell>
        <mxCell id="z1jnCZvwi2yLoUgEgZ1X-93" value="" style="endArrow=classic;html=1;rounded=0;dashed=1;exitX=0;exitY=0.3333333333333333;exitDx=0;exitDy=0;exitPerimeter=0;entryX=1;entryY=0;entryDx=0;entryDy=0;" parent="1" source="z1jnCZvwi2yLoUgEgZ1X-57" target="z1jnCZvwi2yLoUgEgZ1X-61" edge="1">
          <mxGeometry width="50" height="50" relative="1" as="geometry">
            <mxPoint x="1000" y="625" as="sourcePoint" />
            <mxPoint x="1100" y="635" as="targetPoint" />
          </mxGeometry>
        </mxCell>
        <mxCell id="z1jnCZvwi2yLoUgEgZ1X-94" value="" style="endArrow=classic;html=1;rounded=0;dashed=1;exitX=0;exitY=0.3333333333333333;exitDx=0;exitDy=0;exitPerimeter=0;entryX=1;entryY=1;entryDx=0;entryDy=0;" parent="1" source="z1jnCZvwi2yLoUgEgZ1X-57" target="z1jnCZvwi2yLoUgEgZ1X-60" edge="1">
          <mxGeometry width="50" height="50" relative="1" as="geometry">
            <mxPoint x="1050" y="555" as="sourcePoint" />
            <mxPoint x="1100" y="455" as="targetPoint" />
          </mxGeometry>
        </mxCell>
        <mxCell id="z1jnCZvwi2yLoUgEgZ1X-95" value="Student" style="text;html=1;align=center;verticalAlign=middle;resizable=0;points=[];autosize=1;strokeColor=none;fillColor=none;labelBackgroundColor=default;" parent="1" vertex="1">
          <mxGeometry x="105" y="685" width="60" height="30" as="geometry" />
        </mxCell>
        <mxCell id="z1jnCZvwi2yLoUgEgZ1X-96" value="Administration&amp;nbsp;" style="text;html=1;align=center;verticalAlign=middle;whiteSpace=wrap;rounded=0;fillColor=default;" parent="1" vertex="1">
          <mxGeometry x="1285" y="590" width="60" height="30" as="geometry" />
        </mxCell>
      </root>
    </mxGraphModel>
  </diagram>
  <diagram name="modified use case" id="PgWIuV_zqYNW_xvtOlFD">
    <mxGraphModel dx="2299" dy="1291" grid="1" gridSize="10" guides="1" tooltips="1" connect="1" arrows="1" fold="1" page="1" pageScale="1" pageWidth="850" pageHeight="1100" math="0" shadow="0">
      <root>
        <mxCell id="1Nn8dMuL-P1h15jbuh2v-0" />
        <mxCell id="1Nn8dMuL-P1h15jbuh2v-1" parent="1Nn8dMuL-P1h15jbuh2v-0" />
        <mxCell id="1Nn8dMuL-P1h15jbuh2v-57" value="Actor" style="shape=umlActor;verticalLabelPosition=bottom;verticalAlign=top;html=1;outlineConnect=0;" parent="1Nn8dMuL-P1h15jbuh2v-1" vertex="1">
          <mxGeometry x="1205" y="550" width="30" height="60" as="geometry" />
        </mxCell>
        <mxCell id="1Nn8dMuL-P1h15jbuh2v-58" value="Actor" style="shape=umlActor;verticalLabelPosition=bottom;verticalAlign=top;html=1;outlineConnect=0;labelBackgroundColor=none;" parent="1Nn8dMuL-P1h15jbuh2v-1" vertex="1">
          <mxGeometry x="-5" y="480" width="30" height="60" as="geometry" />
        </mxCell>
        <mxCell id="1Nn8dMuL-P1h15jbuh2v-59" value="Use case diagram" style="swimlane;whiteSpace=wrap;html=1;" parent="1Nn8dMuL-P1h15jbuh2v-1" vertex="1">
          <mxGeometry x="100" y="120" width="910" height="850" as="geometry" />
        </mxCell>
        <mxCell id="sA68w2BiT_EfXSQ4eKa4-4" style="edgeStyle=orthogonalEdgeStyle;rounded=0;orthogonalLoop=1;jettySize=auto;html=1;entryX=1;entryY=1;entryDx=0;entryDy=0;dashed=1;fontSize=19;" edge="1" parent="1Nn8dMuL-P1h15jbuh2v-59" source="1Nn8dMuL-P1h15jbuh2v-61" target="sA68w2BiT_EfXSQ4eKa4-1">
          <mxGeometry relative="1" as="geometry" />
        </mxCell>
        <mxCell id="sA68w2BiT_EfXSQ4eKa4-7" value="&amp;lt;&amp;lt;include&amp;gt;&amp;gt;" style="edgeLabel;html=1;align=center;verticalAlign=middle;resizable=0;points=[];fontSize=11;" vertex="1" connectable="0" parent="sA68w2BiT_EfXSQ4eKa4-4">
          <mxGeometry x="-0.3867" relative="1" as="geometry">
            <mxPoint as="offset" />
          </mxGeometry>
        </mxCell>
        <mxCell id="1Nn8dMuL-P1h15jbuh2v-61" value="View objection requests" style="ellipse;whiteSpace=wrap;html=1;" parent="1Nn8dMuL-P1h15jbuh2v-59" vertex="1">
          <mxGeometry x="690.4300000000001" y="531" width="120" height="80" as="geometry" />
        </mxCell>
        <mxCell id="1Nn8dMuL-P1h15jbuh2v-67" style="edgeStyle=orthogonalEdgeStyle;rounded=0;orthogonalLoop=1;jettySize=auto;html=1;exitX=0.5;exitY=0;exitDx=0;exitDy=0;entryX=0;entryY=1;entryDx=0;entryDy=0;dashed=1;" parent="1Nn8dMuL-P1h15jbuh2v-59" source="1Nn8dMuL-P1h15jbuh2v-69" target="1Nn8dMuL-P1h15jbuh2v-61" edge="1">
          <mxGeometry relative="1" as="geometry" />
        </mxCell>
        <mxCell id="1Nn8dMuL-P1h15jbuh2v-68" value="&amp;lt;&amp;lt;extend&amp;gt;&amp;gt;" style="edgeLabel;html=1;align=center;verticalAlign=middle;resizable=0;points=[];" parent="1Nn8dMuL-P1h15jbuh2v-67" vertex="1" connectable="0">
          <mxGeometry x="-0.2302" y="4" relative="1" as="geometry">
            <mxPoint as="offset" />
          </mxGeometry>
        </mxCell>
        <mxCell id="1Nn8dMuL-P1h15jbuh2v-69" value="Accept the objection" style="ellipse;whiteSpace=wrap;html=1;" parent="1Nn8dMuL-P1h15jbuh2v-59" vertex="1">
          <mxGeometry x="635.43" y="676" width="69.57" height="39" as="geometry" />
        </mxCell>
        <mxCell id="1Nn8dMuL-P1h15jbuh2v-70" style="edgeStyle=orthogonalEdgeStyle;rounded=0;orthogonalLoop=1;jettySize=auto;html=1;exitX=0.5;exitY=0;exitDx=0;exitDy=0;entryX=1;entryY=1;entryDx=0;entryDy=0;dashed=1;" parent="1Nn8dMuL-P1h15jbuh2v-59" source="1Nn8dMuL-P1h15jbuh2v-72" target="1Nn8dMuL-P1h15jbuh2v-61" edge="1">
          <mxGeometry relative="1" as="geometry" />
        </mxCell>
        <mxCell id="1Nn8dMuL-P1h15jbuh2v-71" value="&amp;lt;&amp;lt;extend&amp;gt;&amp;gt;" style="edgeLabel;html=1;align=center;verticalAlign=middle;resizable=0;points=[];" parent="1Nn8dMuL-P1h15jbuh2v-70" vertex="1" connectable="0">
          <mxGeometry x="-0.0352" relative="1" as="geometry">
            <mxPoint as="offset" />
          </mxGeometry>
        </mxCell>
        <mxCell id="1Nn8dMuL-P1h15jbuh2v-72" value="Reject the objection" style="ellipse;whiteSpace=wrap;html=1;" parent="1Nn8dMuL-P1h15jbuh2v-59" vertex="1">
          <mxGeometry x="785.43" y="671" width="84.57" height="49" as="geometry" />
        </mxCell>
        <mxCell id="sA68w2BiT_EfXSQ4eKa4-26" style="edgeStyle=orthogonalEdgeStyle;rounded=0;orthogonalLoop=1;jettySize=auto;html=1;exitX=1;exitY=0.5;exitDx=0;exitDy=0;entryX=0;entryY=1;entryDx=0;entryDy=0;dashed=1;fontSize=11;" edge="1" parent="1Nn8dMuL-P1h15jbuh2v-59" source="1Nn8dMuL-P1h15jbuh2v-4" target="sA68w2BiT_EfXSQ4eKa4-1">
          <mxGeometry relative="1" as="geometry" />
        </mxCell>
        <mxCell id="1Nn8dMuL-P1h15jbuh2v-4" value="View available parkings" style="ellipse;whiteSpace=wrap;html=1;" parent="1Nn8dMuL-P1h15jbuh2v-59" vertex="1">
          <mxGeometry x="165" y="484" width="120" height="80" as="geometry" />
        </mxCell>
        <mxCell id="sA68w2BiT_EfXSQ4eKa4-27" style="edgeStyle=orthogonalEdgeStyle;rounded=0;orthogonalLoop=1;jettySize=auto;html=1;exitX=1;exitY=0.5;exitDx=0;exitDy=0;dashed=1;fontSize=11;" edge="1" parent="1Nn8dMuL-P1h15jbuh2v-59" source="1Nn8dMuL-P1h15jbuh2v-5" target="sA68w2BiT_EfXSQ4eKa4-1">
          <mxGeometry relative="1" as="geometry" />
        </mxCell>
        <mxCell id="1Nn8dMuL-P1h15jbuh2v-5" value="Access Account settings" style="ellipse;whiteSpace=wrap;html=1;" parent="1Nn8dMuL-P1h15jbuh2v-59" vertex="1">
          <mxGeometry x="160" y="364.5" width="120" height="80" as="geometry" />
        </mxCell>
        <mxCell id="sA68w2BiT_EfXSQ4eKa4-25" style="edgeStyle=orthogonalEdgeStyle;rounded=0;orthogonalLoop=1;jettySize=auto;html=1;exitX=1;exitY=0.5;exitDx=0;exitDy=0;entryX=0.411;entryY=1.021;entryDx=0;entryDy=0;entryPerimeter=0;dashed=1;fontSize=11;" edge="1" parent="1Nn8dMuL-P1h15jbuh2v-59" source="1Nn8dMuL-P1h15jbuh2v-8" target="sA68w2BiT_EfXSQ4eKa4-1">
          <mxGeometry relative="1" as="geometry" />
        </mxCell>
        <mxCell id="1Nn8dMuL-P1h15jbuh2v-8" value="View Violation Records" style="ellipse;whiteSpace=wrap;html=1;" parent="1Nn8dMuL-P1h15jbuh2v-59" vertex="1">
          <mxGeometry x="160" y="591.5" width="120" height="80" as="geometry" />
        </mxCell>
        <mxCell id="sA68w2BiT_EfXSQ4eKa4-29" style="edgeStyle=orthogonalEdgeStyle;rounded=0;orthogonalLoop=1;jettySize=auto;html=1;exitX=1;exitY=0.5;exitDx=0;exitDy=0;entryX=0.267;entryY=0.101;entryDx=0;entryDy=0;entryPerimeter=0;dashed=1;fontSize=11;" edge="1" parent="1Nn8dMuL-P1h15jbuh2v-59" source="1Nn8dMuL-P1h15jbuh2v-9" target="sA68w2BiT_EfXSQ4eKa4-1">
          <mxGeometry relative="1" as="geometry" />
        </mxCell>
        <mxCell id="1Nn8dMuL-P1h15jbuh2v-9" value="Edit car information" style="ellipse;whiteSpace=wrap;html=1;" parent="1Nn8dMuL-P1h15jbuh2v-59" vertex="1">
          <mxGeometry x="160" y="179" width="110" height="70" as="geometry" />
        </mxCell>
        <mxCell id="sA68w2BiT_EfXSQ4eKa4-28" style="edgeStyle=orthogonalEdgeStyle;rounded=0;orthogonalLoop=1;jettySize=auto;html=1;exitX=1;exitY=0.5;exitDx=0;exitDy=0;entryX=0.067;entryY=0.213;entryDx=0;entryDy=0;entryPerimeter=0;dashed=1;fontSize=11;" edge="1" parent="1Nn8dMuL-P1h15jbuh2v-59" source="1Nn8dMuL-P1h15jbuh2v-12" target="sA68w2BiT_EfXSQ4eKa4-1">
          <mxGeometry relative="1" as="geometry" />
        </mxCell>
        <mxCell id="1Nn8dMuL-P1h15jbuh2v-12" value="Remove car" style="ellipse;whiteSpace=wrap;html=1;" parent="1Nn8dMuL-P1h15jbuh2v-59" vertex="1">
          <mxGeometry x="160" y="262" width="107.5" height="68" as="geometry" />
        </mxCell>
        <mxCell id="sA68w2BiT_EfXSQ4eKa4-30" style="edgeStyle=orthogonalEdgeStyle;rounded=0;orthogonalLoop=1;jettySize=auto;html=1;exitX=1;exitY=0.5;exitDx=0;exitDy=0;entryX=0.472;entryY=0.013;entryDx=0;entryDy=0;entryPerimeter=0;dashed=1;fontSize=11;" edge="1" parent="1Nn8dMuL-P1h15jbuh2v-59" source="1Nn8dMuL-P1h15jbuh2v-15" target="sA68w2BiT_EfXSQ4eKa4-1">
          <mxGeometry relative="1" as="geometry" />
        </mxCell>
        <mxCell id="1Nn8dMuL-P1h15jbuh2v-15" value="Add car" style="ellipse;whiteSpace=wrap;html=1;" parent="1Nn8dMuL-P1h15jbuh2v-59" vertex="1">
          <mxGeometry x="160" y="100" width="103.75" height="60" as="geometry" />
        </mxCell>
        <mxCell id="F_f0yboZJ7WjJOnHmLtM-2" style="edgeStyle=orthogonalEdgeStyle;rounded=0;orthogonalLoop=1;jettySize=auto;html=1;exitX=0.5;exitY=0;exitDx=0;exitDy=0;fontSize=12;dashed=1;entryX=0.419;entryY=1.013;entryDx=0;entryDy=0;entryPerimeter=0;" edge="1" parent="1Nn8dMuL-P1h15jbuh2v-59" source="1Nn8dMuL-P1h15jbuh2v-39" target="1Nn8dMuL-P1h15jbuh2v-8">
          <mxGeometry relative="1" as="geometry">
            <mxPoint x="200" y="690" as="targetPoint" />
          </mxGeometry>
        </mxCell>
        <mxCell id="F_f0yboZJ7WjJOnHmLtM-3" value="&amp;lt;&amp;lt;extend&amp;gt;&amp;gt;" style="edgeLabel;html=1;align=center;verticalAlign=middle;resizable=0;points=[];fontSize=12;" vertex="1" connectable="0" parent="F_f0yboZJ7WjJOnHmLtM-2">
          <mxGeometry x="-0.2214" y="3" relative="1" as="geometry">
            <mxPoint as="offset" />
          </mxGeometry>
        </mxCell>
        <mxCell id="1Nn8dMuL-P1h15jbuh2v-39" value="Object on a violation" style="ellipse;whiteSpace=wrap;html=1;" parent="1Nn8dMuL-P1h15jbuh2v-59" vertex="1">
          <mxGeometry x="130" y="740" width="91.56" height="70" as="geometry" />
        </mxCell>
        <mxCell id="sA68w2BiT_EfXSQ4eKa4-3" style="edgeStyle=orthogonalEdgeStyle;rounded=0;orthogonalLoop=1;jettySize=auto;html=1;entryX=1;entryY=0.5;entryDx=0;entryDy=0;dashed=1;fontSize=19;" edge="1" parent="1Nn8dMuL-P1h15jbuh2v-59" source="JYlSr787mzWd6lNjebjB-21" target="sA68w2BiT_EfXSQ4eKa4-1">
          <mxGeometry relative="1" as="geometry" />
        </mxCell>
        <mxCell id="sA68w2BiT_EfXSQ4eKa4-5" value="&lt;font style=&quot;font-size: 11px;&quot;&gt;&amp;lt;&amp;lt;include&amp;gt;&amp;gt;&lt;/font&gt;" style="edgeLabel;html=1;align=center;verticalAlign=middle;resizable=0;points=[];fontSize=19;" vertex="1" connectable="0" parent="sA68w2BiT_EfXSQ4eKa4-3">
          <mxGeometry x="-0.0933" relative="1" as="geometry">
            <mxPoint as="offset" />
          </mxGeometry>
        </mxCell>
        <mxCell id="JYlSr787mzWd6lNjebjB-21" value="Track Violations" style="ellipse;whiteSpace=wrap;html=1;" parent="1Nn8dMuL-P1h15jbuh2v-59" vertex="1">
          <mxGeometry x="690.4300000000001" y="386" width="120" height="80" as="geometry" />
        </mxCell>
        <mxCell id="sA68w2BiT_EfXSQ4eKa4-2" style="edgeStyle=orthogonalEdgeStyle;rounded=0;orthogonalLoop=1;jettySize=auto;html=1;exitX=0;exitY=0.5;exitDx=0;exitDy=0;entryX=1;entryY=0;entryDx=0;entryDy=0;fontSize=19;dashed=1;" edge="1" parent="1Nn8dMuL-P1h15jbuh2v-59" source="JYlSr787mzWd6lNjebjB-28" target="sA68w2BiT_EfXSQ4eKa4-1">
          <mxGeometry relative="1" as="geometry" />
        </mxCell>
        <mxCell id="sA68w2BiT_EfXSQ4eKa4-6" value="&amp;lt;&amp;lt;include&amp;gt;&amp;gt;" style="edgeLabel;html=1;align=center;verticalAlign=middle;resizable=0;points=[];fontSize=11;" vertex="1" connectable="0" parent="sA68w2BiT_EfXSQ4eKa4-2">
          <mxGeometry x="0.0816" y="-1" relative="1" as="geometry">
            <mxPoint x="47" y="1" as="offset" />
          </mxGeometry>
        </mxCell>
        <mxCell id="JYlSr787mzWd6lNjebjB-28" value="Add new record" style="ellipse;whiteSpace=wrap;html=1;" parent="1Nn8dMuL-P1h15jbuh2v-59" vertex="1">
          <mxGeometry x="690.4300000000001" y="262" width="120" height="80" as="geometry" />
        </mxCell>
        <mxCell id="sA68w2BiT_EfXSQ4eKa4-1" value="Log in" style="ellipse;whiteSpace=wrap;html=1;fontSize=19;" vertex="1" parent="1Nn8dMuL-P1h15jbuh2v-59">
          <mxGeometry x="430" y="386" width="150" height="89" as="geometry" />
        </mxCell>
        <mxCell id="sA68w2BiT_EfXSQ4eKa4-53" value="Add violation to the DB" style="ellipse;whiteSpace=wrap;html=1;fontSize=12;" vertex="1" parent="1Nn8dMuL-P1h15jbuh2v-59">
          <mxGeometry x="695.4300000000001" y="60" width="100" height="50" as="geometry" />
        </mxCell>
        <mxCell id="sA68w2BiT_EfXSQ4eKa4-56" value="Update parking availability information" style="ellipse;whiteSpace=wrap;html=1;fontSize=12;" vertex="1" parent="1Nn8dMuL-P1h15jbuh2v-59">
          <mxGeometry x="695.4300000000001" y="119.5" width="100" height="50" as="geometry" />
        </mxCell>
        <mxCell id="1Nn8dMuL-P1h15jbuh2v-90" value="Student" style="text;html=1;align=center;verticalAlign=middle;resizable=0;points=[];autosize=1;strokeColor=none;fillColor=none;labelBackgroundColor=default;" parent="1Nn8dMuL-P1h15jbuh2v-1" vertex="1">
          <mxGeometry x="-20" y="540" width="60" height="30" as="geometry" />
        </mxCell>
        <mxCell id="1Nn8dMuL-P1h15jbuh2v-91" value="Administration&amp;nbsp;" style="text;html=1;align=center;verticalAlign=middle;whiteSpace=wrap;rounded=0;fillColor=default;" parent="1Nn8dMuL-P1h15jbuh2v-1" vertex="1">
          <mxGeometry x="1190" y="610" width="60" height="30" as="geometry" />
        </mxCell>
        <mxCell id="sA68w2BiT_EfXSQ4eKa4-31" value="" style="endArrow=none;html=1;rounded=0;fontSize=11;entryX=0;entryY=1;entryDx=0;entryDy=0;exitX=1;exitY=0.3333333333333333;exitDx=0;exitDy=0;exitPerimeter=0;" edge="1" parent="1Nn8dMuL-P1h15jbuh2v-1" source="1Nn8dMuL-P1h15jbuh2v-58" target="1Nn8dMuL-P1h15jbuh2v-15">
          <mxGeometry width="50" height="50" relative="1" as="geometry">
            <mxPoint x="25" y="500" as="sourcePoint" />
            <mxPoint x="75" y="450" as="targetPoint" />
          </mxGeometry>
        </mxCell>
        <mxCell id="sA68w2BiT_EfXSQ4eKa4-39" value="&amp;lt;&amp;lt;init&amp;gt;&amp;gt;" style="edgeLabel;html=1;align=center;verticalAlign=middle;resizable=0;points=[];fontSize=11;" vertex="1" connectable="0" parent="sA68w2BiT_EfXSQ4eKa4-31">
          <mxGeometry x="-0.1041" relative="1" as="geometry">
            <mxPoint as="offset" />
          </mxGeometry>
        </mxCell>
        <mxCell id="sA68w2BiT_EfXSQ4eKa4-34" value="" style="endArrow=none;html=1;rounded=0;fontSize=11;entryX=0;entryY=1;entryDx=0;entryDy=0;exitX=1;exitY=0.3333333333333333;exitDx=0;exitDy=0;exitPerimeter=0;" edge="1" parent="1Nn8dMuL-P1h15jbuh2v-1" source="1Nn8dMuL-P1h15jbuh2v-58" target="1Nn8dMuL-P1h15jbuh2v-9">
          <mxGeometry width="50" height="50" relative="1" as="geometry">
            <mxPoint x="35" y="510" as="sourcePoint" />
            <mxPoint x="285" y="281" as="targetPoint" />
          </mxGeometry>
        </mxCell>
        <mxCell id="sA68w2BiT_EfXSQ4eKa4-40" value="&amp;lt;&amp;lt;init&amp;gt;&amp;gt;" style="edgeLabel;html=1;align=center;verticalAlign=middle;resizable=0;points=[];fontSize=11;" vertex="1" connectable="0" parent="sA68w2BiT_EfXSQ4eKa4-34">
          <mxGeometry x="0.0566" y="-2" relative="1" as="geometry">
            <mxPoint as="offset" />
          </mxGeometry>
        </mxCell>
        <mxCell id="sA68w2BiT_EfXSQ4eKa4-35" value="" style="endArrow=none;html=1;rounded=0;fontSize=11;exitX=1;exitY=0.3333333333333333;exitDx=0;exitDy=0;exitPerimeter=0;" edge="1" parent="1Nn8dMuL-P1h15jbuh2v-1" source="1Nn8dMuL-P1h15jbuh2v-58" target="1Nn8dMuL-P1h15jbuh2v-12">
          <mxGeometry width="50" height="50" relative="1" as="geometry">
            <mxPoint x="35" y="510" as="sourcePoint" />
            <mxPoint x="286" y="369" as="targetPoint" />
          </mxGeometry>
        </mxCell>
        <mxCell id="sA68w2BiT_EfXSQ4eKa4-41" value="&amp;lt;&amp;lt;init&amp;gt;&amp;gt;" style="edgeLabel;html=1;align=center;verticalAlign=middle;resizable=0;points=[];fontSize=11;" vertex="1" connectable="0" parent="sA68w2BiT_EfXSQ4eKa4-35">
          <mxGeometry x="0.1446" y="1" relative="1" as="geometry">
            <mxPoint as="offset" />
          </mxGeometry>
        </mxCell>
        <mxCell id="sA68w2BiT_EfXSQ4eKa4-36" value="" style="endArrow=none;html=1;rounded=0;fontSize=11;exitX=1;exitY=0.3333333333333333;exitDx=0;exitDy=0;exitPerimeter=0;" edge="1" parent="1Nn8dMuL-P1h15jbuh2v-1" source="1Nn8dMuL-P1h15jbuh2v-58" target="1Nn8dMuL-P1h15jbuh2v-5">
          <mxGeometry width="50" height="50" relative="1" as="geometry">
            <mxPoint x="35" y="510" as="sourcePoint" />
            <mxPoint x="275" y="440" as="targetPoint" />
          </mxGeometry>
        </mxCell>
        <mxCell id="sA68w2BiT_EfXSQ4eKa4-42" value="&amp;lt;&amp;lt;init&amp;gt;&amp;gt;" style="edgeLabel;html=1;align=center;verticalAlign=middle;resizable=0;points=[];fontSize=11;" vertex="1" connectable="0" parent="sA68w2BiT_EfXSQ4eKa4-36">
          <mxGeometry x="0.141" y="-2" relative="1" as="geometry">
            <mxPoint as="offset" />
          </mxGeometry>
        </mxCell>
        <mxCell id="sA68w2BiT_EfXSQ4eKa4-37" value="" style="endArrow=none;html=1;rounded=0;fontSize=11;exitX=1;exitY=0.3333333333333333;exitDx=0;exitDy=0;exitPerimeter=0;" edge="1" parent="1Nn8dMuL-P1h15jbuh2v-1" source="1Nn8dMuL-P1h15jbuh2v-58" target="1Nn8dMuL-P1h15jbuh2v-4">
          <mxGeometry width="50" height="50" relative="1" as="geometry">
            <mxPoint x="35" y="510" as="sourcePoint" />
            <mxPoint x="270" y="530" as="targetPoint" />
          </mxGeometry>
        </mxCell>
        <mxCell id="sA68w2BiT_EfXSQ4eKa4-43" value="&amp;lt;&amp;lt;init&amp;gt;&amp;gt;" style="edgeLabel;html=1;align=center;verticalAlign=middle;resizable=0;points=[];fontSize=11;" vertex="1" connectable="0" parent="sA68w2BiT_EfXSQ4eKa4-37">
          <mxGeometry x="-0.0543" relative="1" as="geometry">
            <mxPoint as="offset" />
          </mxGeometry>
        </mxCell>
        <mxCell id="sA68w2BiT_EfXSQ4eKa4-38" value="" style="endArrow=none;html=1;rounded=0;fontSize=11;exitX=1;exitY=0.3333333333333333;exitDx=0;exitDy=0;exitPerimeter=0;" edge="1" parent="1Nn8dMuL-P1h15jbuh2v-1" source="1Nn8dMuL-P1h15jbuh2v-58" target="1Nn8dMuL-P1h15jbuh2v-8">
          <mxGeometry width="50" height="50" relative="1" as="geometry">
            <mxPoint x="35" y="510" as="sourcePoint" />
            <mxPoint x="286" y="631" as="targetPoint" />
          </mxGeometry>
        </mxCell>
        <mxCell id="sA68w2BiT_EfXSQ4eKa4-44" value="&amp;lt;&amp;lt;init&amp;gt;&amp;gt;" style="edgeLabel;html=1;align=center;verticalAlign=middle;resizable=0;points=[];fontSize=11;" vertex="1" connectable="0" parent="sA68w2BiT_EfXSQ4eKa4-38">
          <mxGeometry x="-0.1742" y="2" relative="1" as="geometry">
            <mxPoint as="offset" />
          </mxGeometry>
        </mxCell>
        <mxCell id="sA68w2BiT_EfXSQ4eKa4-45" value="" style="endArrow=none;html=1;rounded=0;fontSize=11;entryX=0;entryY=0.3333333333333333;entryDx=0;entryDy=0;entryPerimeter=0;exitX=1;exitY=0.5;exitDx=0;exitDy=0;" edge="1" parent="1Nn8dMuL-P1h15jbuh2v-1" source="JYlSr787mzWd6lNjebjB-28" target="1Nn8dMuL-P1h15jbuh2v-57">
          <mxGeometry width="50" height="50" relative="1" as="geometry">
            <mxPoint x="1250" y="560" as="sourcePoint" />
            <mxPoint x="1300" y="510" as="targetPoint" />
          </mxGeometry>
        </mxCell>
        <mxCell id="sA68w2BiT_EfXSQ4eKa4-50" value="&amp;lt;&amp;lt;init&amp;gt;&amp;gt;" style="edgeLabel;html=1;align=center;verticalAlign=middle;resizable=0;points=[];fontSize=11;" vertex="1" connectable="0" parent="sA68w2BiT_EfXSQ4eKa4-45">
          <mxGeometry x="0.4529" y="1" relative="1" as="geometry">
            <mxPoint as="offset" />
          </mxGeometry>
        </mxCell>
        <mxCell id="sA68w2BiT_EfXSQ4eKa4-46" value="" style="endArrow=none;html=1;rounded=0;fontSize=11;entryX=0;entryY=0.3333333333333333;entryDx=0;entryDy=0;entryPerimeter=0;" edge="1" parent="1Nn8dMuL-P1h15jbuh2v-1" source="JYlSr787mzWd6lNjebjB-21" target="1Nn8dMuL-P1h15jbuh2v-57">
          <mxGeometry width="50" height="50" relative="1" as="geometry">
            <mxPoint x="1160" y="680" as="sourcePoint" />
            <mxPoint x="1210" y="630" as="targetPoint" />
          </mxGeometry>
        </mxCell>
        <mxCell id="sA68w2BiT_EfXSQ4eKa4-49" value="&amp;lt;&amp;lt;init&amp;gt;&amp;gt;" style="edgeLabel;html=1;align=center;verticalAlign=middle;resizable=0;points=[];fontSize=11;" vertex="1" connectable="0" parent="sA68w2BiT_EfXSQ4eKa4-46">
          <mxGeometry x="0.2483" y="2" relative="1" as="geometry">
            <mxPoint as="offset" />
          </mxGeometry>
        </mxCell>
        <mxCell id="sA68w2BiT_EfXSQ4eKa4-47" value="" style="endArrow=none;html=1;rounded=0;fontSize=11;entryX=0;entryY=0.3333333333333333;entryDx=0;entryDy=0;entryPerimeter=0;" edge="1" parent="1Nn8dMuL-P1h15jbuh2v-1" source="1Nn8dMuL-P1h15jbuh2v-61" target="1Nn8dMuL-P1h15jbuh2v-57">
          <mxGeometry width="50" height="50" relative="1" as="geometry">
            <mxPoint x="1130" y="710" as="sourcePoint" />
            <mxPoint x="1180" y="660" as="targetPoint" />
          </mxGeometry>
        </mxCell>
        <mxCell id="sA68w2BiT_EfXSQ4eKa4-48" value="&amp;lt;&amp;lt;init&amp;gt;&amp;gt;" style="edgeLabel;html=1;align=center;verticalAlign=middle;resizable=0;points=[];fontSize=11;" vertex="1" connectable="0" parent="sA68w2BiT_EfXSQ4eKa4-47">
          <mxGeometry x="0.2627" y="-2" relative="1" as="geometry">
            <mxPoint as="offset" />
          </mxGeometry>
        </mxCell>
        <mxCell id="sA68w2BiT_EfXSQ4eKa4-51" value="" style="shape=image;html=1;verticalAlign=top;verticalLabelPosition=bottom;labelBackgroundColor=#ffffff;imageAspect=0;aspect=fixed;image=https://cdn1.iconfinder.com/data/icons/vehicle-37/24/Drone-128.png;fontSize=8;" vertex="1" parent="1Nn8dMuL-P1h15jbuh2v-1">
          <mxGeometry x="1090" y="210" width="60" height="60" as="geometry" />
        </mxCell>
        <mxCell id="sA68w2BiT_EfXSQ4eKa4-52" value="Drone" style="text;html=1;align=center;verticalAlign=middle;resizable=0;points=[];autosize=1;strokeColor=none;fillColor=none;fontSize=12;" vertex="1" parent="1Nn8dMuL-P1h15jbuh2v-1">
          <mxGeometry x="1100" y="265" width="60" height="30" as="geometry" />
        </mxCell>
        <mxCell id="sA68w2BiT_EfXSQ4eKa4-61" value="" style="endArrow=none;html=1;rounded=0;fontSize=12;entryX=0;entryY=0.25;entryDx=0;entryDy=0;" edge="1" parent="1Nn8dMuL-P1h15jbuh2v-1" source="sA68w2BiT_EfXSQ4eKa4-53" target="sA68w2BiT_EfXSQ4eKa4-51">
          <mxGeometry width="50" height="50" relative="1" as="geometry">
            <mxPoint x="1000" y="330" as="sourcePoint" />
            <mxPoint x="1050" y="280" as="targetPoint" />
          </mxGeometry>
        </mxCell>
        <mxCell id="sA68w2BiT_EfXSQ4eKa4-62" value="" style="endArrow=none;html=1;rounded=0;fontSize=12;entryX=0;entryY=0.5;entryDx=0;entryDy=0;" edge="1" parent="1Nn8dMuL-P1h15jbuh2v-1" source="sA68w2BiT_EfXSQ4eKa4-56" target="sA68w2BiT_EfXSQ4eKa4-51">
          <mxGeometry width="50" height="50" relative="1" as="geometry">
            <mxPoint x="880" y="240" as="sourcePoint" />
            <mxPoint x="1075" y="260" as="targetPoint" />
          </mxGeometry>
        </mxCell>
        <mxCell id="K86fCXYnVStUKI7TnR38-2" style="edgeStyle=orthogonalEdgeStyle;rounded=0;orthogonalLoop=1;jettySize=auto;html=1;fontSize=12;dashed=1;entryX=1;entryY=1;entryDx=0;entryDy=0;" edge="1" parent="1Nn8dMuL-P1h15jbuh2v-1" source="K86fCXYnVStUKI7TnR38-0" target="1Nn8dMuL-P1h15jbuh2v-8">
          <mxGeometry relative="1" as="geometry" />
        </mxCell>
        <mxCell id="K86fCXYnVStUKI7TnR38-7" value="&amp;lt;&amp;lt;participate&amp;gt;&amp;gt;" style="edgeLabel;html=1;align=center;verticalAlign=middle;resizable=0;points=[];fontSize=12;" vertex="1" connectable="0" parent="K86fCXYnVStUKI7TnR38-2">
          <mxGeometry x="-0.5023" y="3" relative="1" as="geometry">
            <mxPoint as="offset" />
          </mxGeometry>
        </mxCell>
        <mxCell id="K86fCXYnVStUKI7TnR38-4" style="edgeStyle=orthogonalEdgeStyle;rounded=0;orthogonalLoop=1;jettySize=auto;html=1;exitX=1;exitY=0.7;exitDx=0;exitDy=0;entryX=0.596;entryY=0.994;entryDx=0;entryDy=0;entryPerimeter=0;dashed=1;fontSize=12;" edge="1" parent="1Nn8dMuL-P1h15jbuh2v-1" source="K86fCXYnVStUKI7TnR38-0" target="1Nn8dMuL-P1h15jbuh2v-61">
          <mxGeometry relative="1" as="geometry" />
        </mxCell>
        <mxCell id="K86fCXYnVStUKI7TnR38-8" value="&amp;lt;&amp;lt;participate&amp;gt;&amp;gt;" style="edgeLabel;html=1;align=center;verticalAlign=middle;resizable=0;points=[];fontSize=12;" vertex="1" connectable="0" parent="K86fCXYnVStUKI7TnR38-4">
          <mxGeometry x="-0.7091" relative="1" as="geometry">
            <mxPoint as="offset" />
          </mxGeometry>
        </mxCell>
        <mxCell id="K86fCXYnVStUKI7TnR38-5" style="edgeStyle=orthogonalEdgeStyle;rounded=0;orthogonalLoop=1;jettySize=auto;html=1;exitX=0.15;exitY=0.05;exitDx=0;exitDy=0;dashed=1;fontSize=12;entryX=1;entryY=1;entryDx=0;entryDy=0;exitPerimeter=0;" edge="1" parent="1Nn8dMuL-P1h15jbuh2v-1" source="K86fCXYnVStUKI7TnR38-0" target="1Nn8dMuL-P1h15jbuh2v-4">
          <mxGeometry relative="1" as="geometry">
            <Array as="points">
              <mxPoint x="450" y="983" />
              <mxPoint x="450" y="672" />
            </Array>
          </mxGeometry>
        </mxCell>
        <mxCell id="K86fCXYnVStUKI7TnR38-6" value="&amp;lt;&amp;lt;participate&amp;gt;&amp;gt;" style="edgeLabel;html=1;align=center;verticalAlign=middle;resizable=0;points=[];fontSize=12;" vertex="1" connectable="0" parent="K86fCXYnVStUKI7TnR38-5">
          <mxGeometry x="-0.4816" y="-2" relative="1" as="geometry">
            <mxPoint as="offset" />
          </mxGeometry>
        </mxCell>
        <mxCell id="K86fCXYnVStUKI7TnR38-9" style="edgeStyle=orthogonalEdgeStyle;rounded=0;orthogonalLoop=1;jettySize=auto;html=1;exitX=1;exitY=0.3;exitDx=0;exitDy=0;dashed=1;fontSize=12;entryX=0.217;entryY=0.909;entryDx=0;entryDy=0;entryPerimeter=0;" edge="1" parent="1Nn8dMuL-P1h15jbuh2v-1" source="K86fCXYnVStUKI7TnR38-0" target="JYlSr787mzWd6lNjebjB-21">
          <mxGeometry relative="1" as="geometry" />
        </mxCell>
        <mxCell id="K86fCXYnVStUKI7TnR38-10" value="&amp;lt;&amp;lt;participate&amp;gt;&amp;gt;" style="edgeLabel;html=1;align=center;verticalAlign=middle;resizable=0;points=[];fontSize=12;" vertex="1" connectable="0" parent="K86fCXYnVStUKI7TnR38-9">
          <mxGeometry x="-0.0339" y="2" relative="1" as="geometry">
            <mxPoint as="offset" />
          </mxGeometry>
        </mxCell>
        <mxCell id="K86fCXYnVStUKI7TnR38-11" style="edgeStyle=orthogonalEdgeStyle;rounded=0;orthogonalLoop=1;jettySize=auto;html=1;exitX=0.85;exitY=0.05;exitDx=0;exitDy=0;exitPerimeter=0;dashed=1;fontSize=12;entryX=0.102;entryY=0.856;entryDx=0;entryDy=0;entryPerimeter=0;" edge="1" parent="1Nn8dMuL-P1h15jbuh2v-1" source="K86fCXYnVStUKI7TnR38-0" target="JYlSr787mzWd6lNjebjB-28">
          <mxGeometry relative="1" as="geometry">
            <Array as="points">
              <mxPoint x="690" y="983" />
              <mxPoint x="690" y="450" />
              <mxPoint x="803" y="450" />
            </Array>
          </mxGeometry>
        </mxCell>
        <mxCell id="K86fCXYnVStUKI7TnR38-12" value="&amp;lt;&amp;lt;participate&amp;gt;&amp;gt;" style="edgeLabel;html=1;align=center;verticalAlign=middle;resizable=0;points=[];fontSize=12;" vertex="1" connectable="0" parent="K86fCXYnVStUKI7TnR38-11">
          <mxGeometry x="-0.4988" y="-2" relative="1" as="geometry">
            <mxPoint as="offset" />
          </mxGeometry>
        </mxCell>
        <mxCell id="K86fCXYnVStUKI7TnR38-0" value="" style="shape=datastore;whiteSpace=wrap;html=1;fontSize=12;" vertex="1" parent="1Nn8dMuL-P1h15jbuh2v-1">
          <mxGeometry x="540" y="980" width="60" height="60" as="geometry" />
        </mxCell>
      </root>
    </mxGraphModel>
  </diagram>
  <diagram name="Log-in" id="rPU8Wpcx2gsjFBY0cnl7">
    <mxGraphModel dx="2954" dy="1107" grid="1" gridSize="10" guides="1" tooltips="1" connect="1" arrows="1" fold="1" page="1" pageScale="1" pageWidth="850" pageHeight="1100" math="0" shadow="0">
      <root>
        <mxCell id="0" />
        <mxCell id="1" parent="0" />
        <mxCell id="9pIVO09RBlTZqWtcsEFP-2" value="Application" style="rounded=1;whiteSpace=wrap;html=1;" parent="1" vertex="1">
          <mxGeometry x="365" y="460" width="120" height="60" as="geometry" />
        </mxCell>
        <mxCell id="9pIVO09RBlTZqWtcsEFP-3" value="Backend" style="rounded=1;whiteSpace=wrap;html=1;" parent="1" vertex="1">
          <mxGeometry x="560" y="460" width="120" height="60" as="geometry" />
        </mxCell>
        <mxCell id="9pIVO09RBlTZqWtcsEFP-5" value="" style="endArrow=none;dashed=1;html=1;rounded=0;" parent="1" edge="1">
          <mxGeometry width="50" height="50" relative="1" as="geometry">
            <mxPoint x="240" y="910" as="sourcePoint" />
            <mxPoint x="240" y="510" as="targetPoint" />
          </mxGeometry>
        </mxCell>
        <mxCell id="9pIVO09RBlTZqWtcsEFP-6" value="student" style="shape=umlActor;verticalLabelPosition=bottom;verticalAlign=top;html=1;outlineConnect=0;" parent="1" vertex="1">
          <mxGeometry x="220" y="440" width="30" height="60" as="geometry" />
        </mxCell>
        <mxCell id="9pIVO09RBlTZqWtcsEFP-7" value="" style="endArrow=none;dashed=1;html=1;rounded=0;" parent="1" edge="1">
          <mxGeometry width="50" height="50" relative="1" as="geometry">
            <mxPoint x="425" y="910" as="sourcePoint" />
            <mxPoint x="425" y="520" as="targetPoint" />
          </mxGeometry>
        </mxCell>
        <mxCell id="9pIVO09RBlTZqWtcsEFP-8" value="" style="endArrow=none;dashed=1;html=1;rounded=0;" parent="1" edge="1">
          <mxGeometry width="50" height="50" relative="1" as="geometry">
            <mxPoint x="620" y="910" as="sourcePoint" />
            <mxPoint x="619.5" y="520" as="targetPoint" />
          </mxGeometry>
        </mxCell>
        <mxCell id="9pIVO09RBlTZqWtcsEFP-11" value="" style="endArrow=classic;html=1;rounded=0;" parent="1" edge="1">
          <mxGeometry width="50" height="50" relative="1" as="geometry">
            <mxPoint x="250" y="580" as="sourcePoint" />
            <mxPoint x="420" y="580" as="targetPoint" />
          </mxGeometry>
        </mxCell>
        <mxCell id="9pIVO09RBlTZqWtcsEFP-23" value="login_button()" style="edgeLabel;html=1;align=center;verticalAlign=middle;resizable=0;points=[];" parent="9pIVO09RBlTZqWtcsEFP-11" vertex="1" connectable="0">
          <mxGeometry x="-0.2727" y="-1" relative="1" as="geometry">
            <mxPoint x="8" y="-11" as="offset" />
          </mxGeometry>
        </mxCell>
        <mxCell id="9pIVO09RBlTZqWtcsEFP-12" value="" style="endArrow=classic;html=1;rounded=0;" parent="1" edge="1">
          <mxGeometry width="50" height="50" relative="1" as="geometry">
            <mxPoint x="425" y="600" as="sourcePoint" />
            <mxPoint x="615" y="600" as="targetPoint" />
          </mxGeometry>
        </mxCell>
        <mxCell id="9pIVO09RBlTZqWtcsEFP-24" value="user_login(id,password)" style="edgeLabel;html=1;align=center;verticalAlign=middle;resizable=0;points=[];" parent="9pIVO09RBlTZqWtcsEFP-12" vertex="1" connectable="0">
          <mxGeometry x="-0.265" y="1" relative="1" as="geometry">
            <mxPoint x="25" y="-9" as="offset" />
          </mxGeometry>
        </mxCell>
        <mxCell id="9pIVO09RBlTZqWtcsEFP-27" value="Alt" style="shape=umlFrame;whiteSpace=wrap;html=1;pointerEvents=0;fontSize=12;" parent="1" vertex="1">
          <mxGeometry x="150" y="680" width="500" height="210" as="geometry" />
        </mxCell>
        <mxCell id="9pIVO09RBlTZqWtcsEFP-29" value="" style="rounded=0;whiteSpace=wrap;html=1;fontSize=12;" parent="1" vertex="1">
          <mxGeometry x="620" y="610" width="30" height="30" as="geometry" />
        </mxCell>
        <mxCell id="9pIVO09RBlTZqWtcsEFP-30" value="Verify_user" style="text;html=1;align=center;verticalAlign=middle;resizable=0;points=[];autosize=1;strokeColor=none;fillColor=none;fontSize=12;" parent="1" vertex="1">
          <mxGeometry x="650" y="610" width="80" height="30" as="geometry" />
        </mxCell>
        <mxCell id="9pIVO09RBlTZqWtcsEFP-31" value="" style="endArrow=none;dashed=1;html=1;dashPattern=1 3;strokeWidth=2;rounded=0;fontSize=12;entryX=1.002;entryY=0.467;entryDx=0;entryDy=0;entryPerimeter=0;exitX=-0.003;exitY=0.47;exitDx=0;exitDy=0;exitPerimeter=0;" parent="1" source="9pIVO09RBlTZqWtcsEFP-27" target="9pIVO09RBlTZqWtcsEFP-27" edge="1">
          <mxGeometry width="50" height="50" relative="1" as="geometry">
            <mxPoint x="10" y="840" as="sourcePoint" />
            <mxPoint x="60" y="790" as="targetPoint" />
          </mxGeometry>
        </mxCell>
        <mxCell id="9pIVO09RBlTZqWtcsEFP-32" value="[if account valid]" style="text;html=1;align=center;verticalAlign=middle;resizable=0;points=[];autosize=1;strokeColor=none;fillColor=none;fontSize=10;" parent="1" vertex="1">
          <mxGeometry x="140" y="710" width="100" height="30" as="geometry" />
        </mxCell>
        <mxCell id="9pIVO09RBlTZqWtcsEFP-34" value="[else]" style="text;html=1;align=center;verticalAlign=middle;resizable=0;points=[];autosize=1;strokeColor=none;fillColor=none;fontSize=9;" parent="1" vertex="1">
          <mxGeometry x="155" y="785" width="40" height="20" as="geometry" />
        </mxCell>
        <mxCell id="9pIVO09RBlTZqWtcsEFP-37" value="" style="endArrow=classic;html=1;rounded=0;fontSize=11;dashed=1;" parent="1" edge="1">
          <mxGeometry width="50" height="50" relative="1" as="geometry">
            <mxPoint x="620" y="700" as="sourcePoint" />
            <mxPoint x="430" y="700" as="targetPoint" />
          </mxGeometry>
        </mxCell>
        <mxCell id="9pIVO09RBlTZqWtcsEFP-38" value="account information" style="edgeLabel;html=1;align=center;verticalAlign=middle;resizable=0;points=[];fontSize=11;" parent="9pIVO09RBlTZqWtcsEFP-37" vertex="1" connectable="0">
          <mxGeometry x="0.1033" y="-2" relative="1" as="geometry">
            <mxPoint x="5" y="22" as="offset" />
          </mxGeometry>
        </mxCell>
        <mxCell id="9pIVO09RBlTZqWtcsEFP-39" value="" style="endArrow=classic;html=1;rounded=0;fontSize=11;dashed=1;" parent="1" edge="1">
          <mxGeometry width="50" height="50" relative="1" as="geometry">
            <mxPoint x="420" y="730" as="sourcePoint" />
            <mxPoint x="240" y="730" as="targetPoint" />
          </mxGeometry>
        </mxCell>
        <mxCell id="9pIVO09RBlTZqWtcsEFP-40" value="display_student_main_page()" style="edgeLabel;html=1;align=center;verticalAlign=middle;resizable=0;points=[];fontSize=11;" parent="9pIVO09RBlTZqWtcsEFP-39" vertex="1" connectable="0">
          <mxGeometry x="0.2839" y="2" relative="1" as="geometry">
            <mxPoint x="22" y="8" as="offset" />
          </mxGeometry>
        </mxCell>
        <mxCell id="9pIVO09RBlTZqWtcsEFP-41" value="" style="endArrow=classic;html=1;rounded=0;fontSize=11;dashed=1;" parent="1" edge="1">
          <mxGeometry width="50" height="50" relative="1" as="geometry">
            <mxPoint x="615" y="800" as="sourcePoint" />
            <mxPoint x="425" y="800" as="targetPoint" />
          </mxGeometry>
        </mxCell>
        <mxCell id="9pIVO09RBlTZqWtcsEFP-42" value="Error()" style="edgeLabel;html=1;align=center;verticalAlign=middle;resizable=0;points=[];fontSize=11;" parent="9pIVO09RBlTZqWtcsEFP-41" vertex="1" connectable="0">
          <mxGeometry x="0.1033" y="-2" relative="1" as="geometry">
            <mxPoint x="5" y="22" as="offset" />
          </mxGeometry>
        </mxCell>
        <mxCell id="9pIVO09RBlTZqWtcsEFP-43" value="" style="endArrow=classic;html=1;rounded=0;fontSize=11;dashed=1;" parent="1" edge="1">
          <mxGeometry width="50" height="50" relative="1" as="geometry">
            <mxPoint x="425" y="820" as="sourcePoint" />
            <mxPoint x="235" y="820" as="targetPoint" />
          </mxGeometry>
        </mxCell>
        <mxCell id="9pIVO09RBlTZqWtcsEFP-44" value="Display_error_msg()" style="edgeLabel;html=1;align=center;verticalAlign=middle;resizable=0;points=[];fontSize=11;" parent="9pIVO09RBlTZqWtcsEFP-43" vertex="1" connectable="0">
          <mxGeometry x="0.1033" y="-2" relative="1" as="geometry">
            <mxPoint x="5" y="22" as="offset" />
          </mxGeometry>
        </mxCell>
      </root>
    </mxGraphModel>
  </diagram>
  <diagram id="nApJdqA_nQjV3fNIaqAn" name="Account settings">
    <mxGraphModel dx="1688" dy="600" grid="1" gridSize="10" guides="1" tooltips="1" connect="1" arrows="1" fold="1" page="1" pageScale="1" pageWidth="850" pageHeight="1100" math="0" shadow="0">
      <root>
        <mxCell id="0" />
        <mxCell id="1" parent="0" />
        <mxCell id="0TnNCmeEnXJeR4WWj-0O-1" value="Application" style="rounded=1;whiteSpace=wrap;html=1;" parent="1" vertex="1">
          <mxGeometry x="355" y="140" width="120" height="60" as="geometry" />
        </mxCell>
        <mxCell id="0TnNCmeEnXJeR4WWj-0O-2" value="Backend" style="rounded=1;whiteSpace=wrap;html=1;" parent="1" vertex="1">
          <mxGeometry x="550" y="140" width="120" height="60" as="geometry" />
        </mxCell>
        <mxCell id="0TnNCmeEnXJeR4WWj-0O-3" value="" style="endArrow=none;dashed=1;html=1;rounded=0;" parent="1" edge="1">
          <mxGeometry width="50" height="50" relative="1" as="geometry">
            <mxPoint x="240" y="810" as="sourcePoint" />
            <mxPoint x="240" y="190" as="targetPoint" />
          </mxGeometry>
        </mxCell>
        <mxCell id="0TnNCmeEnXJeR4WWj-0O-4" value="student" style="shape=umlActor;verticalLabelPosition=bottom;verticalAlign=top;html=1;outlineConnect=0;" parent="1" vertex="1">
          <mxGeometry x="220" y="120" width="30" height="60" as="geometry" />
        </mxCell>
        <mxCell id="0TnNCmeEnXJeR4WWj-0O-5" value="" style="endArrow=none;dashed=1;html=1;rounded=0;" parent="1" edge="1">
          <mxGeometry width="50" height="50" relative="1" as="geometry">
            <mxPoint x="609" y="800" as="sourcePoint" />
            <mxPoint x="609" y="200" as="targetPoint" />
          </mxGeometry>
        </mxCell>
        <mxCell id="0TnNCmeEnXJeR4WWj-0O-6" value="" style="endArrow=classic;html=1;rounded=0;" parent="1" edge="1">
          <mxGeometry width="50" height="50" relative="1" as="geometry">
            <mxPoint x="240" y="280" as="sourcePoint" />
            <mxPoint x="410" y="280" as="targetPoint" />
          </mxGeometry>
        </mxCell>
        <mxCell id="0TnNCmeEnXJeR4WWj-0O-7" value="Access_account_settings()" style="edgeLabel;html=1;align=center;verticalAlign=middle;resizable=0;points=[];" parent="0TnNCmeEnXJeR4WWj-0O-6" vertex="1" connectable="0">
          <mxGeometry x="-0.2727" y="-1" relative="1" as="geometry">
            <mxPoint x="8" y="-11" as="offset" />
          </mxGeometry>
        </mxCell>
        <mxCell id="0TnNCmeEnXJeR4WWj-0O-8" value="" style="endArrow=classic;html=1;rounded=0;dashed=1;" parent="1" edge="1">
          <mxGeometry width="50" height="50" relative="1" as="geometry">
            <mxPoint x="410" y="304.66" as="sourcePoint" />
            <mxPoint x="240" y="304.66" as="targetPoint" />
            <Array as="points">
              <mxPoint x="320" y="304.66" />
            </Array>
          </mxGeometry>
        </mxCell>
        <mxCell id="0TnNCmeEnXJeR4WWj-0O-9" value="Display_account_settings()" style="edgeLabel;html=1;align=center;verticalAlign=middle;resizable=0;points=[];" parent="0TnNCmeEnXJeR4WWj-0O-8" vertex="1" connectable="0">
          <mxGeometry x="0.0093" relative="1" as="geometry">
            <mxPoint y="-15" as="offset" />
          </mxGeometry>
        </mxCell>
        <mxCell id="0TnNCmeEnXJeR4WWj-0O-10" value="" style="endArrow=classic;html=1;rounded=0;" parent="1" edge="1">
          <mxGeometry width="50" height="50" relative="1" as="geometry">
            <mxPoint x="240" y="390" as="sourcePoint" />
            <mxPoint x="410" y="390" as="targetPoint" />
          </mxGeometry>
        </mxCell>
        <mxCell id="0TnNCmeEnXJeR4WWj-0O-11" value="add_new_car()" style="edgeLabel;html=1;align=center;verticalAlign=middle;resizable=0;points=[];" parent="0TnNCmeEnXJeR4WWj-0O-10" vertex="1" connectable="0">
          <mxGeometry x="-0.2157" relative="1" as="geometry">
            <mxPoint x="13" y="-10" as="offset" />
          </mxGeometry>
        </mxCell>
        <mxCell id="0TnNCmeEnXJeR4WWj-0O-12" value="[add new car]" style="text;html=1;strokeColor=none;fillColor=none;align=center;verticalAlign=middle;whiteSpace=wrap;rounded=0;" parent="1" vertex="1">
          <mxGeometry x="150" y="360" width="100" height="30" as="geometry" />
        </mxCell>
        <mxCell id="0TnNCmeEnXJeR4WWj-0O-13" value="" style="endArrow=classic;html=1;rounded=0;" parent="1" edge="1">
          <mxGeometry width="50" height="50" relative="1" as="geometry">
            <mxPoint x="410" y="410" as="sourcePoint" />
            <mxPoint x="610" y="410" as="targetPoint" />
          </mxGeometry>
        </mxCell>
        <mxCell id="0TnNCmeEnXJeR4WWj-0O-14" value="req_add()" style="edgeLabel;html=1;align=center;verticalAlign=middle;resizable=0;points=[];" parent="0TnNCmeEnXJeR4WWj-0O-13" vertex="1" connectable="0">
          <mxGeometry x="0.0867" y="-2" relative="1" as="geometry">
            <mxPoint x="-9" y="-12" as="offset" />
          </mxGeometry>
        </mxCell>
        <mxCell id="0TnNCmeEnXJeR4WWj-0O-15" value="" style="endArrow=classic;html=1;rounded=0;dashed=1;" parent="1" edge="1">
          <mxGeometry width="50" height="50" relative="1" as="geometry">
            <mxPoint x="610" y="440" as="sourcePoint" />
            <mxPoint x="410" y="440" as="targetPoint" />
          </mxGeometry>
        </mxCell>
        <mxCell id="0TnNCmeEnXJeR4WWj-0O-16" value="car_added()" style="edgeLabel;html=1;align=center;verticalAlign=middle;resizable=0;points=[];" parent="0TnNCmeEnXJeR4WWj-0O-15" vertex="1" connectable="0">
          <mxGeometry x="-0.1467" y="4" relative="1" as="geometry">
            <mxPoint x="-15" y="-14" as="offset" />
          </mxGeometry>
        </mxCell>
        <mxCell id="0TnNCmeEnXJeR4WWj-0O-17" value="" style="rounded=1;whiteSpace=wrap;html=1;fontSize=12;fillColor=none;" parent="1" vertex="1">
          <mxGeometry x="610" y="410" width="30" height="30" as="geometry" />
        </mxCell>
        <mxCell id="0TnNCmeEnXJeR4WWj-0O-18" value="add new car" style="text;html=1;strokeColor=none;fillColor=none;align=center;verticalAlign=middle;whiteSpace=wrap;rounded=0;" parent="1" vertex="1">
          <mxGeometry x="640" y="410" width="80" height="30" as="geometry" />
        </mxCell>
        <mxCell id="0TnNCmeEnXJeR4WWj-0O-19" value="" style="endArrow=classic;html=1;rounded=0;dashed=1;" parent="1" edge="1">
          <mxGeometry width="50" height="50" relative="1" as="geometry">
            <mxPoint x="410" y="470" as="sourcePoint" />
            <mxPoint x="240" y="470" as="targetPoint" />
            <Array as="points">
              <mxPoint x="330" y="470" />
            </Array>
          </mxGeometry>
        </mxCell>
        <mxCell id="0TnNCmeEnXJeR4WWj-0O-20" value="display_success_message()" style="edgeLabel;html=1;align=center;verticalAlign=middle;resizable=0;points=[];" parent="0TnNCmeEnXJeR4WWj-0O-19" vertex="1" connectable="0">
          <mxGeometry x="0.1451" y="-3" relative="1" as="geometry">
            <mxPoint x="17" y="-7" as="offset" />
          </mxGeometry>
        </mxCell>
        <mxCell id="0TnNCmeEnXJeR4WWj-0O-21" value="[edit car settings]" style="text;html=1;strokeColor=none;fillColor=none;align=center;verticalAlign=middle;whiteSpace=wrap;rounded=0;" parent="1" vertex="1">
          <mxGeometry x="140" y="500" width="100" height="30" as="geometry" />
        </mxCell>
        <mxCell id="0TnNCmeEnXJeR4WWj-0O-22" value="" style="endArrow=classic;html=1;rounded=0;" parent="1" edge="1">
          <mxGeometry width="50" height="50" relative="1" as="geometry">
            <mxPoint x="240" y="530" as="sourcePoint" />
            <mxPoint x="410" y="530" as="targetPoint" />
          </mxGeometry>
        </mxCell>
        <mxCell id="0TnNCmeEnXJeR4WWj-0O-23" value="display_car_settings()" style="edgeLabel;html=1;align=center;verticalAlign=middle;resizable=0;points=[];" parent="0TnNCmeEnXJeR4WWj-0O-22" vertex="1" connectable="0">
          <mxGeometry x="-0.1604" y="-1" relative="1" as="geometry">
            <mxPoint x="8" y="-11" as="offset" />
          </mxGeometry>
        </mxCell>
        <mxCell id="0TnNCmeEnXJeR4WWj-0O-24" value="" style="endArrow=classic;html=1;rounded=0;" parent="1" edge="1">
          <mxGeometry width="50" height="50" relative="1" as="geometry">
            <mxPoint x="410" y="550" as="sourcePoint" />
            <mxPoint x="610" y="550" as="targetPoint" />
          </mxGeometry>
        </mxCell>
        <mxCell id="0TnNCmeEnXJeR4WWj-0O-25" value="req_edit()" style="edgeLabel;html=1;align=center;verticalAlign=middle;resizable=0;points=[];" parent="0TnNCmeEnXJeR4WWj-0O-24" vertex="1" connectable="0">
          <mxGeometry x="-0.1337" relative="1" as="geometry">
            <mxPoint x="14" y="-10" as="offset" />
          </mxGeometry>
        </mxCell>
        <mxCell id="0TnNCmeEnXJeR4WWj-0O-26" value="" style="rounded=1;whiteSpace=wrap;html=1;fontSize=12;fillColor=none;" parent="1" vertex="1">
          <mxGeometry x="610" y="550" width="30" height="30" as="geometry" />
        </mxCell>
        <mxCell id="0TnNCmeEnXJeR4WWj-0O-27" value="edit car setting" style="text;html=1;strokeColor=none;fillColor=none;align=center;verticalAlign=middle;whiteSpace=wrap;rounded=0;" parent="1" vertex="1">
          <mxGeometry x="640" y="550" width="90" height="30" as="geometry" />
        </mxCell>
        <mxCell id="0TnNCmeEnXJeR4WWj-0O-28" value="" style="endArrow=classic;html=1;rounded=0;exitX=0;exitY=1;exitDx=0;exitDy=0;dashed=1;" parent="1" source="0TnNCmeEnXJeR4WWj-0O-26" edge="1">
          <mxGeometry width="50" height="50" relative="1" as="geometry">
            <mxPoint x="400" y="490" as="sourcePoint" />
            <mxPoint x="410" y="580" as="targetPoint" />
          </mxGeometry>
        </mxCell>
        <mxCell id="0TnNCmeEnXJeR4WWj-0O-29" value="settings_changed()" style="edgeLabel;html=1;align=center;verticalAlign=middle;resizable=0;points=[];" parent="0TnNCmeEnXJeR4WWj-0O-28" vertex="1" connectable="0">
          <mxGeometry x="0.2179" y="-1" relative="1" as="geometry">
            <mxPoint x="22" y="-9" as="offset" />
          </mxGeometry>
        </mxCell>
        <mxCell id="0TnNCmeEnXJeR4WWj-0O-30" value="" style="endArrow=classic;html=1;rounded=0;exitX=0;exitY=1;exitDx=0;exitDy=0;dashed=1;" parent="1" edge="1">
          <mxGeometry width="50" height="50" relative="1" as="geometry">
            <mxPoint x="410" y="600" as="sourcePoint" />
            <mxPoint x="240" y="600" as="targetPoint" />
          </mxGeometry>
        </mxCell>
        <mxCell id="0TnNCmeEnXJeR4WWj-0O-31" value="display_sucess_message()" style="edgeLabel;html=1;align=center;verticalAlign=middle;resizable=0;points=[];" parent="0TnNCmeEnXJeR4WWj-0O-30" vertex="1" connectable="0">
          <mxGeometry x="0.2179" y="-1" relative="1" as="geometry">
            <mxPoint x="22" y="-9" as="offset" />
          </mxGeometry>
        </mxCell>
        <mxCell id="0TnNCmeEnXJeR4WWj-0O-32" value="" style="endArrow=classic;html=1;rounded=0;" parent="1" edge="1">
          <mxGeometry width="50" height="50" relative="1" as="geometry">
            <mxPoint x="240" y="670" as="sourcePoint" />
            <mxPoint x="410" y="670" as="targetPoint" />
          </mxGeometry>
        </mxCell>
        <mxCell id="0TnNCmeEnXJeR4WWj-0O-33" value="remove_car()" style="edgeLabel;html=1;align=center;verticalAlign=middle;resizable=0;points=[];" parent="0TnNCmeEnXJeR4WWj-0O-32" vertex="1" connectable="0">
          <mxGeometry x="-0.1604" y="-1" relative="1" as="geometry">
            <mxPoint x="8" y="-11" as="offset" />
          </mxGeometry>
        </mxCell>
        <mxCell id="0TnNCmeEnXJeR4WWj-0O-34" value="" style="endArrow=classic;html=1;rounded=0;" parent="1" edge="1">
          <mxGeometry width="50" height="50" relative="1" as="geometry">
            <mxPoint x="410" y="690" as="sourcePoint" />
            <mxPoint x="610" y="690" as="targetPoint" />
          </mxGeometry>
        </mxCell>
        <mxCell id="0TnNCmeEnXJeR4WWj-0O-35" value="req_remove()" style="edgeLabel;html=1;align=center;verticalAlign=middle;resizable=0;points=[];" parent="0TnNCmeEnXJeR4WWj-0O-34" vertex="1" connectable="0">
          <mxGeometry x="-0.1337" relative="1" as="geometry">
            <mxPoint x="14" y="-10" as="offset" />
          </mxGeometry>
        </mxCell>
        <mxCell id="0TnNCmeEnXJeR4WWj-0O-36" value="" style="rounded=1;whiteSpace=wrap;html=1;fontSize=12;fillColor=none;" parent="1" vertex="1">
          <mxGeometry x="610" y="690" width="30" height="30" as="geometry" />
        </mxCell>
        <mxCell id="0TnNCmeEnXJeR4WWj-0O-37" value="remove car" style="text;html=1;strokeColor=none;fillColor=none;align=center;verticalAlign=middle;whiteSpace=wrap;rounded=0;" parent="1" vertex="1">
          <mxGeometry x="640" y="690" width="90" height="30" as="geometry" />
        </mxCell>
        <mxCell id="0TnNCmeEnXJeR4WWj-0O-38" value="" style="endArrow=classic;html=1;rounded=0;exitX=0;exitY=1;exitDx=0;exitDy=0;dashed=1;" parent="1" source="0TnNCmeEnXJeR4WWj-0O-36" edge="1">
          <mxGeometry width="50" height="50" relative="1" as="geometry">
            <mxPoint x="400" y="630" as="sourcePoint" />
            <mxPoint x="410" y="720" as="targetPoint" />
          </mxGeometry>
        </mxCell>
        <mxCell id="0TnNCmeEnXJeR4WWj-0O-39" value="car_removed()" style="edgeLabel;html=1;align=center;verticalAlign=middle;resizable=0;points=[];" parent="0TnNCmeEnXJeR4WWj-0O-38" vertex="1" connectable="0">
          <mxGeometry x="0.2179" y="-1" relative="1" as="geometry">
            <mxPoint x="22" y="-9" as="offset" />
          </mxGeometry>
        </mxCell>
        <mxCell id="0TnNCmeEnXJeR4WWj-0O-40" value="" style="endArrow=classic;html=1;rounded=0;exitX=0;exitY=1;exitDx=0;exitDy=0;dashed=1;" parent="1" edge="1">
          <mxGeometry width="50" height="50" relative="1" as="geometry">
            <mxPoint x="410" y="740" as="sourcePoint" />
            <mxPoint x="240" y="740" as="targetPoint" />
          </mxGeometry>
        </mxCell>
        <mxCell id="0TnNCmeEnXJeR4WWj-0O-41" value="display_sucess_message()" style="edgeLabel;html=1;align=center;verticalAlign=middle;resizable=0;points=[];" parent="0TnNCmeEnXJeR4WWj-0O-40" vertex="1" connectable="0">
          <mxGeometry x="0.2179" y="-1" relative="1" as="geometry">
            <mxPoint x="22" y="-9" as="offset" />
          </mxGeometry>
        </mxCell>
        <mxCell id="0TnNCmeEnXJeR4WWj-0O-42" value="[remove car]" style="text;html=1;strokeColor=none;fillColor=none;align=center;verticalAlign=middle;whiteSpace=wrap;rounded=0;" parent="1" vertex="1">
          <mxGeometry x="150" y="640" width="100" height="30" as="geometry" />
        </mxCell>
        <mxCell id="0TnNCmeEnXJeR4WWj-0O-43" value="opt" style="shape=umlFrame;whiteSpace=wrap;html=1;pointerEvents=0;fontSize=12;" parent="1" vertex="1">
          <mxGeometry x="140" y="320" width="600" height="460" as="geometry" />
        </mxCell>
        <mxCell id="0TnNCmeEnXJeR4WWj-0O-44" value="" style="endArrow=none;html=1;rounded=0;dashed=1;" parent="1" edge="1">
          <mxGeometry width="50" height="50" relative="1" as="geometry">
            <mxPoint x="410" y="800" as="sourcePoint" />
            <mxPoint x="410" y="200" as="targetPoint" />
          </mxGeometry>
        </mxCell>
      </root>
    </mxGraphModel>
  </diagram>
  <diagram name="available parking" id="CK3UA301_dTINlH2nHeN">
    <mxGraphModel dx="2954" dy="1107" grid="1" gridSize="10" guides="1" tooltips="1" connect="1" arrows="1" fold="1" page="1" pageScale="1" pageWidth="850" pageHeight="1100" math="0" shadow="0">
      <root>
        <mxCell id="0" />
        <mxCell id="1" parent="0" />
        <mxCell id="TOJwzpfKawMFEAbBbnDy-1" value="Application" style="rounded=1;whiteSpace=wrap;html=1;" parent="1" vertex="1">
          <mxGeometry x="355" y="140" width="120" height="60" as="geometry" />
        </mxCell>
        <mxCell id="TOJwzpfKawMFEAbBbnDy-2" value="Backend" style="rounded=1;whiteSpace=wrap;html=1;" parent="1" vertex="1">
          <mxGeometry x="550" y="140" width="120" height="60" as="geometry" />
        </mxCell>
        <mxCell id="TOJwzpfKawMFEAbBbnDy-3" value="" style="endArrow=none;dashed=1;html=1;rounded=0;" parent="1" edge="1">
          <mxGeometry width="50" height="50" relative="1" as="geometry">
            <mxPoint x="230" y="440" as="sourcePoint" />
            <mxPoint x="230" y="190" as="targetPoint" />
          </mxGeometry>
        </mxCell>
        <mxCell id="TOJwzpfKawMFEAbBbnDy-4" value="student" style="shape=umlActor;verticalLabelPosition=bottom;verticalAlign=top;html=1;outlineConnect=0;" parent="1" vertex="1">
          <mxGeometry x="210" y="120" width="30" height="60" as="geometry" />
        </mxCell>
        <mxCell id="TOJwzpfKawMFEAbBbnDy-5" value="" style="endArrow=none;dashed=1;html=1;rounded=0;" parent="1" edge="1">
          <mxGeometry width="50" height="50" relative="1" as="geometry">
            <mxPoint x="415" y="440" as="sourcePoint" />
            <mxPoint x="415" y="200" as="targetPoint" />
          </mxGeometry>
        </mxCell>
        <mxCell id="TOJwzpfKawMFEAbBbnDy-6" value="" style="endArrow=none;dashed=1;html=1;rounded=0;" parent="1" edge="1">
          <mxGeometry width="50" height="50" relative="1" as="geometry">
            <mxPoint x="610" y="440" as="sourcePoint" />
            <mxPoint x="609.5" y="200" as="targetPoint" />
          </mxGeometry>
        </mxCell>
        <mxCell id="TOJwzpfKawMFEAbBbnDy-7" value="" style="endArrow=classic;html=1;rounded=0;" parent="1" edge="1">
          <mxGeometry width="50" height="50" relative="1" as="geometry">
            <mxPoint x="230" y="260" as="sourcePoint" />
            <mxPoint x="410" y="260" as="targetPoint" />
          </mxGeometry>
        </mxCell>
        <mxCell id="BuZYFhV-M7OxicF2pxbt-2" value="View_available_parkings()" style="edgeLabel;html=1;align=center;verticalAlign=middle;resizable=0;points=[];" parent="TOJwzpfKawMFEAbBbnDy-7" vertex="1" connectable="0">
          <mxGeometry x="0.1371" y="-4" relative="1" as="geometry">
            <mxPoint x="-12" y="16" as="offset" />
          </mxGeometry>
        </mxCell>
        <mxCell id="TOJwzpfKawMFEAbBbnDy-9" value="" style="endArrow=classic;html=1;rounded=0;" parent="1" edge="1">
          <mxGeometry width="50" height="50" relative="1" as="geometry">
            <mxPoint x="415" y="280" as="sourcePoint" />
            <mxPoint x="605" y="280" as="targetPoint" />
          </mxGeometry>
        </mxCell>
        <mxCell id="BuZYFhV-M7OxicF2pxbt-3" value="Request_parking_info()" style="edgeLabel;html=1;align=center;verticalAlign=middle;resizable=0;points=[];" parent="TOJwzpfKawMFEAbBbnDy-9" vertex="1" connectable="0">
          <mxGeometry x="0.051" y="-2" relative="1" as="geometry">
            <mxPoint y="8" as="offset" />
          </mxGeometry>
        </mxCell>
        <mxCell id="TOJwzpfKawMFEAbBbnDy-21" value="" style="endArrow=classic;html=1;rounded=0;fontSize=11;dashed=1;" parent="1" edge="1">
          <mxGeometry width="50" height="50" relative="1" as="geometry">
            <mxPoint x="605" y="370" as="sourcePoint" />
            <mxPoint x="415" y="370" as="targetPoint" />
          </mxGeometry>
        </mxCell>
        <mxCell id="TOJwzpfKawMFEAbBbnDy-22" value="List: available parking" style="edgeLabel;html=1;align=center;verticalAlign=middle;resizable=0;points=[];fontSize=11;" parent="TOJwzpfKawMFEAbBbnDy-21" vertex="1" connectable="0">
          <mxGeometry x="0.1033" y="-2" relative="1" as="geometry">
            <mxPoint x="5" y="22" as="offset" />
          </mxGeometry>
        </mxCell>
        <mxCell id="TOJwzpfKawMFEAbBbnDy-23" value="" style="endArrow=classic;html=1;rounded=0;fontSize=11;dashed=1;" parent="1" edge="1">
          <mxGeometry width="50" height="50" relative="1" as="geometry">
            <mxPoint x="415" y="390" as="sourcePoint" />
            <mxPoint x="230" y="390" as="targetPoint" />
          </mxGeometry>
        </mxCell>
        <mxCell id="TOJwzpfKawMFEAbBbnDy-24" value="Display_available_parkings()" style="edgeLabel;html=1;align=center;verticalAlign=middle;resizable=0;points=[];fontSize=11;" parent="TOJwzpfKawMFEAbBbnDy-23" vertex="1" connectable="0">
          <mxGeometry x="0.1033" y="-2" relative="1" as="geometry">
            <mxPoint x="5" y="22" as="offset" />
          </mxGeometry>
        </mxCell>
        <mxCell id="BOExvpDMUtb5f1degj5X-1" value="" style="rounded=0;whiteSpace=wrap;html=1;fontSize=12;" parent="1" vertex="1">
          <mxGeometry x="610" y="310" width="30" height="30" as="geometry" />
        </mxCell>
        <mxCell id="BOExvpDMUtb5f1degj5X-2" value="Check available&lt;br&gt;&amp;nbsp;parking" style="text;html=1;align=center;verticalAlign=middle;resizable=0;points=[];autosize=1;strokeColor=none;fillColor=none;fontSize=12;" parent="1" vertex="1">
          <mxGeometry x="630" y="305" width="110" height="40" as="geometry" />
        </mxCell>
      </root>
    </mxGraphModel>
  </diagram>
  <diagram name="Violation records" id="_WhlSYtqy6Qk0qNoZAhv">
    <mxGraphModel dx="1234" dy="1155" grid="1" gridSize="10" guides="1" tooltips="1" connect="1" arrows="1" fold="1" page="1" pageScale="1" pageWidth="850" pageHeight="1100" math="0" shadow="0">
      <root>
        <mxCell id="0" />
        <mxCell id="1" parent="0" />
        <mxCell id="NrKp90UM7LV7Y88kUq2S-1" value="Application" style="rounded=1;whiteSpace=wrap;html=1;" parent="1" vertex="1">
          <mxGeometry x="320" y="110" width="120" height="60" as="geometry" />
        </mxCell>
        <mxCell id="NrKp90UM7LV7Y88kUq2S-2" value="Backend" style="rounded=1;whiteSpace=wrap;html=1;" parent="1" vertex="1">
          <mxGeometry x="520" y="110" width="120" height="60" as="geometry" />
        </mxCell>
        <mxCell id="NrKp90UM7LV7Y88kUq2S-3" value="" style="endArrow=none;dashed=1;html=1;rounded=0;" parent="1" edge="1">
          <mxGeometry width="50" height="50" relative="1" as="geometry">
            <mxPoint x="200" y="840" as="sourcePoint" />
            <mxPoint x="200" y="160" as="targetPoint" />
          </mxGeometry>
        </mxCell>
        <mxCell id="NrKp90UM7LV7Y88kUq2S-4" value="student" style="shape=umlActor;verticalLabelPosition=bottom;verticalAlign=top;html=1;outlineConnect=0;" parent="1" vertex="1">
          <mxGeometry x="180" y="90" width="30" height="60" as="geometry" />
        </mxCell>
        <mxCell id="NrKp90UM7LV7Y88kUq2S-5" value="" style="endArrow=none;dashed=1;html=1;rounded=0;entryX=0.5;entryY=1;entryDx=0;entryDy=0;" parent="1" target="NrKp90UM7LV7Y88kUq2S-1" edge="1">
          <mxGeometry width="50" height="50" relative="1" as="geometry">
            <mxPoint x="380" y="840" as="sourcePoint" />
            <mxPoint x="385" y="170" as="targetPoint" />
          </mxGeometry>
        </mxCell>
        <mxCell id="NrKp90UM7LV7Y88kUq2S-6" value="" style="endArrow=none;dashed=1;html=1;rounded=0;" parent="1" edge="1">
          <mxGeometry width="50" height="50" relative="1" as="geometry">
            <mxPoint x="580" y="840" as="sourcePoint" />
            <mxPoint x="579.5" y="170" as="targetPoint" />
          </mxGeometry>
        </mxCell>
        <mxCell id="NrKp90UM7LV7Y88kUq2S-7" value="" style="endArrow=classic;html=1;rounded=0;" parent="1" edge="1">
          <mxGeometry width="50" height="50" relative="1" as="geometry">
            <mxPoint x="210" y="230" as="sourcePoint" />
            <mxPoint x="380" y="230" as="targetPoint" />
          </mxGeometry>
        </mxCell>
        <mxCell id="NrKp90UM7LV7Y88kUq2S-8" value="view_hiolations_history()" style="edgeLabel;html=1;align=center;verticalAlign=middle;resizable=0;points=[];" parent="NrKp90UM7LV7Y88kUq2S-7" vertex="1" connectable="0">
          <mxGeometry x="-0.2727" y="-1" relative="1" as="geometry">
            <mxPoint x="8" y="-11" as="offset" />
          </mxGeometry>
        </mxCell>
        <mxCell id="NrKp90UM7LV7Y88kUq2S-9" value="" style="endArrow=classic;html=1;rounded=0;" parent="1" edge="1">
          <mxGeometry width="50" height="50" relative="1" as="geometry">
            <mxPoint x="385" y="250" as="sourcePoint" />
            <mxPoint x="575" y="250" as="targetPoint" />
          </mxGeometry>
        </mxCell>
        <mxCell id="NrKp90UM7LV7Y88kUq2S-10" value="Request_violation_records()" style="edgeLabel;html=1;align=center;verticalAlign=middle;resizable=0;points=[];" parent="NrKp90UM7LV7Y88kUq2S-9" vertex="1" connectable="0">
          <mxGeometry x="-0.265" y="1" relative="1" as="geometry">
            <mxPoint x="25" y="-9" as="offset" />
          </mxGeometry>
        </mxCell>
        <mxCell id="NrKp90UM7LV7Y88kUq2S-12" value="" style="rounded=0;whiteSpace=wrap;html=1;fontSize=12;" parent="1" vertex="1">
          <mxGeometry x="580" y="260" width="30" height="30" as="geometry" />
        </mxCell>
        <mxCell id="NrKp90UM7LV7Y88kUq2S-13" value="Retrieve records" style="text;html=1;align=center;verticalAlign=middle;resizable=0;points=[];autosize=1;strokeColor=none;fillColor=none;fontSize=12;" parent="1" vertex="1">
          <mxGeometry x="600" y="260" width="110" height="30" as="geometry" />
        </mxCell>
        <mxCell id="ZgrkfPgzlvW_9WwfwClO-1" value="" style="endArrow=classic;html=1;rounded=0;dashed=1;" parent="1" edge="1">
          <mxGeometry width="50" height="50" relative="1" as="geometry">
            <mxPoint x="580" y="300" as="sourcePoint" />
            <mxPoint x="380" y="300" as="targetPoint" />
          </mxGeometry>
        </mxCell>
        <mxCell id="ZgrkfPgzlvW_9WwfwClO-3" value="Black points, paid/unpaid violations" style="edgeLabel;html=1;align=center;verticalAlign=middle;resizable=0;points=[];" parent="ZgrkfPgzlvW_9WwfwClO-1" vertex="1" connectable="0">
          <mxGeometry x="0.0099" y="-2" relative="1" as="geometry">
            <mxPoint x="6" y="22" as="offset" />
          </mxGeometry>
        </mxCell>
        <mxCell id="ZgrkfPgzlvW_9WwfwClO-4" value="" style="endArrow=classic;html=1;rounded=0;dashed=1;" parent="1" edge="1">
          <mxGeometry width="50" height="50" relative="1" as="geometry">
            <mxPoint x="380" y="330" as="sourcePoint" />
            <mxPoint x="200" y="330" as="targetPoint" />
            <Array as="points">
              <mxPoint x="290" y="330" />
            </Array>
          </mxGeometry>
        </mxCell>
        <mxCell id="ZgrkfPgzlvW_9WwfwClO-5" value="Display records()" style="edgeLabel;html=1;align=center;verticalAlign=middle;resizable=0;points=[];" parent="ZgrkfPgzlvW_9WwfwClO-4" vertex="1" connectable="0">
          <mxGeometry x="0.0093" relative="1" as="geometry">
            <mxPoint as="offset" />
          </mxGeometry>
        </mxCell>
        <mxCell id="DRdattXLEag3aiq04ElX-1" value="" style="endArrow=classic;html=1;rounded=0;" parent="1" edge="1">
          <mxGeometry width="50" height="50" relative="1" as="geometry">
            <mxPoint x="380" y="380" as="sourcePoint" />
            <mxPoint x="580" y="380" as="targetPoint" />
          </mxGeometry>
        </mxCell>
        <mxCell id="DRdattXLEag3aiq04ElX-2" value="Request_violation_records()" style="edgeLabel;html=1;align=center;verticalAlign=middle;resizable=0;points=[];" parent="DRdattXLEag3aiq04ElX-1" vertex="1" connectable="0">
          <mxGeometry x="-0.265" y="1" relative="1" as="geometry">
            <mxPoint x="25" y="-9" as="offset" />
          </mxGeometry>
        </mxCell>
        <mxCell id="DRdattXLEag3aiq04ElX-3" value="" style="rounded=1;whiteSpace=wrap;html=1;fontSize=12;fillColor=none;" parent="1" vertex="1">
          <mxGeometry x="580" y="390" width="30" height="30" as="geometry" />
        </mxCell>
        <mxCell id="DRdattXLEag3aiq04ElX-4" value="Retrieve records" style="text;html=1;align=center;verticalAlign=middle;resizable=0;points=[];autosize=1;strokeColor=none;fillColor=none;fontSize=12;" parent="1" vertex="1">
          <mxGeometry x="610" y="390" width="110" height="30" as="geometry" />
        </mxCell>
        <mxCell id="DRdattXLEag3aiq04ElX-5" value="" style="endArrow=classic;html=1;rounded=0;dashed=1;" parent="1" edge="1">
          <mxGeometry width="50" height="50" relative="1" as="geometry">
            <mxPoint x="575" y="440" as="sourcePoint" />
            <mxPoint x="380" y="440" as="targetPoint" />
          </mxGeometry>
        </mxCell>
        <mxCell id="DRdattXLEag3aiq04ElX-6" value="Black points, paid/unpaid violations" style="edgeLabel;html=1;align=center;verticalAlign=middle;resizable=0;points=[];" parent="DRdattXLEag3aiq04ElX-5" vertex="1" connectable="0">
          <mxGeometry x="0.0099" y="-2" relative="1" as="geometry">
            <mxPoint x="6" y="12" as="offset" />
          </mxGeometry>
        </mxCell>
        <mxCell id="DRdattXLEag3aiq04ElX-7" value="" style="endArrow=classic;html=1;rounded=0;dashed=1;" parent="1" edge="1">
          <mxGeometry width="50" height="50" relative="1" as="geometry">
            <mxPoint x="380" y="460" as="sourcePoint" />
            <mxPoint x="200" y="460" as="targetPoint" />
          </mxGeometry>
        </mxCell>
        <mxCell id="DRdattXLEag3aiq04ElX-8" value="Display violation Records" style="edgeLabel;html=1;align=center;verticalAlign=middle;resizable=0;points=[];" parent="DRdattXLEag3aiq04ElX-7" vertex="1" connectable="0">
          <mxGeometry x="0.2958" relative="1" as="geometry">
            <mxPoint x="20" y="10" as="offset" />
          </mxGeometry>
        </mxCell>
        <mxCell id="DRdattXLEag3aiq04ElX-9" value="" style="endArrow=classic;html=1;rounded=0;" parent="1" edge="1">
          <mxGeometry width="50" height="50" relative="1" as="geometry">
            <mxPoint x="200" y="541" as="sourcePoint" />
            <mxPoint x="380" y="541" as="targetPoint" />
          </mxGeometry>
        </mxCell>
        <mxCell id="DRdattXLEag3aiq04ElX-10" value="choose a record" style="edgeLabel;html=1;align=center;verticalAlign=middle;resizable=0;points=[];" parent="DRdattXLEag3aiq04ElX-9" vertex="1" connectable="0">
          <mxGeometry x="0.1274" y="1" relative="1" as="geometry">
            <mxPoint as="offset" />
          </mxGeometry>
        </mxCell>
        <mxCell id="DRdattXLEag3aiq04ElX-11" value="" style="endArrow=classic;html=1;rounded=0;dashed=1;" parent="1" edge="1">
          <mxGeometry width="50" height="50" relative="1" as="geometry">
            <mxPoint x="380" y="571" as="sourcePoint" />
            <mxPoint x="200" y="571" as="targetPoint" />
          </mxGeometry>
        </mxCell>
        <mxCell id="DRdattXLEag3aiq04ElX-12" value="Display_record_datails()" style="edgeLabel;html=1;align=center;verticalAlign=middle;resizable=0;points=[];" parent="DRdattXLEag3aiq04ElX-11" vertex="1" connectable="0">
          <mxGeometry x="0.1972" relative="1" as="geometry">
            <mxPoint x="22" y="10" as="offset" />
          </mxGeometry>
        </mxCell>
        <mxCell id="DRdattXLEag3aiq04ElX-13" value="" style="endArrow=classic;html=1;rounded=0;" parent="1" edge="1">
          <mxGeometry width="50" height="50" relative="1" as="geometry">
            <mxPoint x="200" y="620" as="sourcePoint" />
            <mxPoint x="380" y="620" as="targetPoint" />
          </mxGeometry>
        </mxCell>
        <mxCell id="DRdattXLEag3aiq04ElX-14" value="Objection()" style="edgeLabel;html=1;align=center;verticalAlign=middle;resizable=0;points=[];" parent="DRdattXLEag3aiq04ElX-13" vertex="1" connectable="0">
          <mxGeometry x="-0.2621" y="3" relative="1" as="geometry">
            <mxPoint x="7" y="13" as="offset" />
          </mxGeometry>
        </mxCell>
        <mxCell id="DRdattXLEag3aiq04ElX-15" value="" style="endArrow=classic;html=1;rounded=0;" parent="1" edge="1">
          <mxGeometry width="50" height="50" relative="1" as="geometry">
            <mxPoint x="380" y="650" as="sourcePoint" />
            <mxPoint x="575" y="650" as="targetPoint" />
          </mxGeometry>
        </mxCell>
        <mxCell id="DRdattXLEag3aiq04ElX-16" value="Objection_request()" style="edgeLabel;html=1;align=center;verticalAlign=middle;resizable=0;points=[];" parent="DRdattXLEag3aiq04ElX-15" vertex="1" connectable="0">
          <mxGeometry x="0.0928" y="-2" relative="1" as="geometry">
            <mxPoint y="8" as="offset" />
          </mxGeometry>
        </mxCell>
        <mxCell id="DRdattXLEag3aiq04ElX-17" value="" style="rounded=1;whiteSpace=wrap;html=1;fontSize=12;fillColor=none;" parent="1" vertex="1">
          <mxGeometry x="580" y="670" width="30" height="30" as="geometry" />
        </mxCell>
        <mxCell id="DRdattXLEag3aiq04ElX-18" value="Save objection to DB" style="text;html=1;align=center;verticalAlign=middle;resizable=0;points=[];autosize=1;strokeColor=none;fillColor=none;fontSize=12;" parent="1" vertex="1">
          <mxGeometry x="600" y="670" width="140" height="30" as="geometry" />
        </mxCell>
        <mxCell id="DRdattXLEag3aiq04ElX-19" value="" style="endArrow=classic;html=1;rounded=0;dashed=1;" parent="1" edge="1">
          <mxGeometry width="50" height="50" relative="1" as="geometry">
            <mxPoint x="580" y="710" as="sourcePoint" />
            <mxPoint x="380" y="710" as="targetPoint" />
          </mxGeometry>
        </mxCell>
        <mxCell id="DRdattXLEag3aiq04ElX-20" value="Objection added to the DB" style="edgeLabel;html=1;align=center;verticalAlign=middle;resizable=0;points=[];" parent="DRdattXLEag3aiq04ElX-19" vertex="1" connectable="0">
          <mxGeometry x="0.1443" y="1" relative="1" as="geometry">
            <mxPoint x="14" y="9" as="offset" />
          </mxGeometry>
        </mxCell>
        <mxCell id="DRdattXLEag3aiq04ElX-21" value="" style="endArrow=classic;html=1;rounded=0;dashed=1;" parent="1" edge="1">
          <mxGeometry width="50" height="50" relative="1" as="geometry">
            <mxPoint x="380" y="730" as="sourcePoint" />
            <mxPoint x="200" y="730" as="targetPoint" />
          </mxGeometry>
        </mxCell>
        <mxCell id="3sbasZWDqI7-_6yoNLGM-1" value="Objection submitted succesfully" style="edgeLabel;html=1;align=center;verticalAlign=middle;resizable=0;points=[];" parent="DRdattXLEag3aiq04ElX-21" vertex="1" connectable="0">
          <mxGeometry x="0.1481" y="-1" relative="1" as="geometry">
            <mxPoint x="13" y="11" as="offset" />
          </mxGeometry>
        </mxCell>
        <mxCell id="UTqxr7I9-X9nEuyq_b0w-1" value="opt" style="shape=umlFrame;whiteSpace=wrap;html=1;pointerEvents=0;fontSize=12;" parent="1" vertex="1">
          <mxGeometry x="120" y="510" width="595" height="300" as="geometry" />
        </mxCell>
      </root>
    </mxGraphModel>
  </diagram>
  <diagram name="Objection management" id="Z7hQe_GhG7EPoUUJZlJT">
    <mxGraphModel dx="1688" dy="633" grid="1" gridSize="10" guides="1" tooltips="1" connect="1" arrows="1" fold="1" page="1" pageScale="1" pageWidth="850" pageHeight="1100" math="0" shadow="0">
      <root>
        <mxCell id="0" />
        <mxCell id="1" parent="0" />
        <mxCell id="YVDwX8TTkJwkC1oWLqCd-1" value="Application" style="rounded=1;whiteSpace=wrap;html=1;" parent="1" vertex="1">
          <mxGeometry x="325" y="120" width="120" height="60" as="geometry" />
        </mxCell>
        <mxCell id="YVDwX8TTkJwkC1oWLqCd-2" value="Backend" style="rounded=1;whiteSpace=wrap;html=1;" parent="1" vertex="1">
          <mxGeometry x="520" y="120" width="120" height="60" as="geometry" />
        </mxCell>
        <mxCell id="YVDwX8TTkJwkC1oWLqCd-3" value="" style="endArrow=none;dashed=1;html=1;rounded=0;" parent="1" edge="1">
          <mxGeometry width="50" height="50" relative="1" as="geometry">
            <mxPoint x="200" y="830" as="sourcePoint" />
            <mxPoint x="200" y="170" as="targetPoint" />
          </mxGeometry>
        </mxCell>
        <mxCell id="YVDwX8TTkJwkC1oWLqCd-4" value="Administration" style="shape=umlActor;verticalLabelPosition=bottom;verticalAlign=top;html=1;outlineConnect=0;" parent="1" vertex="1">
          <mxGeometry x="180" y="100" width="30" height="60" as="geometry" />
        </mxCell>
        <mxCell id="YVDwX8TTkJwkC1oWLqCd-5" value="" style="endArrow=none;dashed=1;html=1;rounded=0;" parent="1" edge="1">
          <mxGeometry width="50" height="50" relative="1" as="geometry">
            <mxPoint x="385" y="830" as="sourcePoint" />
            <mxPoint x="385" y="180" as="targetPoint" />
          </mxGeometry>
        </mxCell>
        <mxCell id="YVDwX8TTkJwkC1oWLqCd-6" value="" style="endArrow=none;dashed=1;html=1;rounded=0;" parent="1" edge="1">
          <mxGeometry width="50" height="50" relative="1" as="geometry">
            <mxPoint x="580" y="830" as="sourcePoint" />
            <mxPoint x="579.5" y="180" as="targetPoint" />
          </mxGeometry>
        </mxCell>
        <mxCell id="YVDwX8TTkJwkC1oWLqCd-7" value="" style="endArrow=classic;html=1;rounded=0;" parent="1" edge="1">
          <mxGeometry width="50" height="50" relative="1" as="geometry">
            <mxPoint x="210" y="240" as="sourcePoint" />
            <mxPoint x="380" y="240" as="targetPoint" />
          </mxGeometry>
        </mxCell>
        <mxCell id="YVDwX8TTkJwkC1oWLqCd-8" value="view_objection_requests()" style="edgeLabel;html=1;align=center;verticalAlign=middle;resizable=0;points=[];" parent="YVDwX8TTkJwkC1oWLqCd-7" vertex="1" connectable="0">
          <mxGeometry x="-0.2727" y="-1" relative="1" as="geometry">
            <mxPoint x="8" y="-11" as="offset" />
          </mxGeometry>
        </mxCell>
        <mxCell id="YVDwX8TTkJwkC1oWLqCd-9" value="" style="endArrow=classic;html=1;rounded=0;" parent="1" edge="1">
          <mxGeometry width="50" height="50" relative="1" as="geometry">
            <mxPoint x="385" y="260" as="sourcePoint" />
            <mxPoint x="575" y="260" as="targetPoint" />
          </mxGeometry>
        </mxCell>
        <mxCell id="YVDwX8TTkJwkC1oWLqCd-10" value="Request_objection_requests()" style="edgeLabel;html=1;align=center;verticalAlign=middle;resizable=0;points=[];" parent="YVDwX8TTkJwkC1oWLqCd-9" vertex="1" connectable="0">
          <mxGeometry x="-0.265" y="1" relative="1" as="geometry">
            <mxPoint x="25" y="-9" as="offset" />
          </mxGeometry>
        </mxCell>
        <mxCell id="YVDwX8TTkJwkC1oWLqCd-11" value="" style="rounded=0;whiteSpace=wrap;html=1;fontSize=12;" parent="1" vertex="1">
          <mxGeometry x="580" y="270" width="30" height="30" as="geometry" />
        </mxCell>
        <mxCell id="YVDwX8TTkJwkC1oWLqCd-12" value="Retrieve records" style="text;html=1;align=center;verticalAlign=middle;resizable=0;points=[];autosize=1;strokeColor=none;fillColor=none;fontSize=12;" parent="1" vertex="1">
          <mxGeometry x="600" y="270" width="110" height="30" as="geometry" />
        </mxCell>
        <mxCell id="YVDwX8TTkJwkC1oWLqCd-13" value="" style="endArrow=classic;html=1;rounded=0;dashed=1;" parent="1" edge="1">
          <mxGeometry width="50" height="50" relative="1" as="geometry">
            <mxPoint x="570" y="310" as="sourcePoint" />
            <mxPoint x="390" y="310" as="targetPoint" />
            <Array as="points">
              <mxPoint x="490" y="310" />
            </Array>
          </mxGeometry>
        </mxCell>
        <mxCell id="vSMP4bwURVY8Vq4-JlrH-1" value="objections list&amp;nbsp;" style="edgeLabel;html=1;align=center;verticalAlign=middle;resizable=0;points=[];" parent="YVDwX8TTkJwkC1oWLqCd-13" vertex="1" connectable="0">
          <mxGeometry x="0.0873" relative="1" as="geometry">
            <mxPoint x="8" as="offset" />
          </mxGeometry>
        </mxCell>
        <mxCell id="YVDwX8TTkJwkC1oWLqCd-15" value="" style="endArrow=classic;html=1;rounded=0;dashed=1;" parent="1" edge="1">
          <mxGeometry width="50" height="50" relative="1" as="geometry">
            <mxPoint x="380" y="340" as="sourcePoint" />
            <mxPoint x="210" y="340" as="targetPoint" />
            <Array as="points">
              <mxPoint x="290" y="340" />
            </Array>
          </mxGeometry>
        </mxCell>
        <mxCell id="YVDwX8TTkJwkC1oWLqCd-16" value="Display list()" style="edgeLabel;html=1;align=center;verticalAlign=middle;resizable=0;points=[];" parent="YVDwX8TTkJwkC1oWLqCd-15" vertex="1" connectable="0">
          <mxGeometry x="0.0093" relative="1" as="geometry">
            <mxPoint as="offset" />
          </mxGeometry>
        </mxCell>
        <mxCell id="D0Fy53WAPz6BEl7_avpJ-1" value="opt" style="shape=umlFrame;whiteSpace=wrap;html=1;pointerEvents=0;fontSize=12;" parent="1" vertex="1">
          <mxGeometry x="90" y="380" width="630" height="430" as="geometry" />
        </mxCell>
        <mxCell id="sb5ip4sKtYN_lp6dYITw-1" value="" style="endArrow=none;dashed=1;html=1;rounded=0;exitX=0;exitY=0.487;exitDx=0;exitDy=0;exitPerimeter=0;entryX=1;entryY=0.488;entryDx=0;entryDy=0;entryPerimeter=0;" parent="1" source="D0Fy53WAPz6BEl7_avpJ-1" target="D0Fy53WAPz6BEl7_avpJ-1" edge="1">
          <mxGeometry width="50" height="50" relative="1" as="geometry">
            <mxPoint x="132.5" y="590" as="sourcePoint" />
            <mxPoint x="637.5" y="590" as="targetPoint" />
          </mxGeometry>
        </mxCell>
        <mxCell id="174L2LtaVqqicwmaeI_x-1" value="[accept objection]" style="text;html=1;align=center;verticalAlign=middle;resizable=0;points=[];autosize=1;strokeColor=none;fillColor=none;" parent="1" vertex="1">
          <mxGeometry x="80" y="410" width="120" height="30" as="geometry" />
        </mxCell>
        <mxCell id="174L2LtaVqqicwmaeI_x-2" value="[reject objection]" style="text;html=1;align=center;verticalAlign=middle;resizable=0;points=[];autosize=1;strokeColor=none;fillColor=none;" parent="1" vertex="1">
          <mxGeometry x="95" y="610" width="110" height="30" as="geometry" />
        </mxCell>
        <mxCell id="174L2LtaVqqicwmaeI_x-6" value="" style="endArrow=classic;html=1;rounded=0;" parent="1" edge="1">
          <mxGeometry width="50" height="50" relative="1" as="geometry">
            <mxPoint x="205" y="440" as="sourcePoint" />
            <mxPoint x="385" y="440" as="targetPoint" />
          </mxGeometry>
        </mxCell>
        <mxCell id="gIHeh3CCxM96vGAU3SsX-1" value="Accept_objection()" style="edgeLabel;html=1;align=center;verticalAlign=middle;resizable=0;points=[];" parent="174L2LtaVqqicwmaeI_x-6" vertex="1" connectable="0">
          <mxGeometry x="-0.2857" y="-2" relative="1" as="geometry">
            <mxPoint x="12" y="18" as="offset" />
          </mxGeometry>
        </mxCell>
        <mxCell id="gIHeh3CCxM96vGAU3SsX-2" value="" style="endArrow=classic;html=1;rounded=0;" parent="1" edge="1">
          <mxGeometry width="50" height="50" relative="1" as="geometry">
            <mxPoint x="390" y="454.71" as="sourcePoint" />
            <mxPoint x="580" y="454.71" as="targetPoint" />
          </mxGeometry>
        </mxCell>
        <mxCell id="gIHeh3CCxM96vGAU3SsX-3" value="Req_remove_violation()" style="edgeLabel;html=1;align=center;verticalAlign=middle;resizable=0;points=[];" parent="gIHeh3CCxM96vGAU3SsX-2" vertex="1" connectable="0">
          <mxGeometry x="-0.2857" y="-2" relative="1" as="geometry">
            <mxPoint x="12" y="18" as="offset" />
          </mxGeometry>
        </mxCell>
        <mxCell id="gIHeh3CCxM96vGAU3SsX-4" value="" style="rounded=0;whiteSpace=wrap;html=1;fontSize=12;" parent="1" vertex="1">
          <mxGeometry x="580" y="460" width="30" height="30" as="geometry" />
        </mxCell>
        <mxCell id="gIHeh3CCxM96vGAU3SsX-5" value="Remove fine" style="text;html=1;align=center;verticalAlign=middle;resizable=0;points=[];autosize=1;strokeColor=none;fillColor=none;fontSize=12;" parent="1" vertex="1">
          <mxGeometry x="610" y="460" width="90" height="30" as="geometry" />
        </mxCell>
        <mxCell id="gIHeh3CCxM96vGAU3SsX-12" value="" style="endArrow=classic;html=1;rounded=0;dashed=1;" parent="1" edge="1">
          <mxGeometry width="50" height="50" relative="1" as="geometry">
            <mxPoint x="580" y="520" as="sourcePoint" />
            <mxPoint x="390" y="520" as="targetPoint" />
          </mxGeometry>
        </mxCell>
        <mxCell id="gIHeh3CCxM96vGAU3SsX-15" value="Fine deleted from DB" style="edgeLabel;html=1;align=center;verticalAlign=middle;resizable=0;points=[];" parent="gIHeh3CCxM96vGAU3SsX-12" vertex="1" connectable="0">
          <mxGeometry x="0.0662" relative="1" as="geometry">
            <mxPoint y="10" as="offset" />
          </mxGeometry>
        </mxCell>
        <mxCell id="gIHeh3CCxM96vGAU3SsX-16" value="" style="endArrow=classic;html=1;rounded=0;dashed=1;" parent="1" edge="1">
          <mxGeometry width="50" height="50" relative="1" as="geometry">
            <mxPoint x="390" y="540" as="sourcePoint" />
            <mxPoint x="200" y="540" as="targetPoint" />
          </mxGeometry>
        </mxCell>
        <mxCell id="gIHeh3CCxM96vGAU3SsX-17" value="Fine deleted succesfully" style="edgeLabel;html=1;align=center;verticalAlign=middle;resizable=0;points=[];" parent="gIHeh3CCxM96vGAU3SsX-16" vertex="1" connectable="0">
          <mxGeometry x="0.2917" y="2" relative="1" as="geometry">
            <mxPoint x="23" y="8" as="offset" />
          </mxGeometry>
        </mxCell>
        <mxCell id="gIHeh3CCxM96vGAU3SsX-18" value="" style="endArrow=classic;html=1;rounded=0;" parent="1" edge="1">
          <mxGeometry width="50" height="50" relative="1" as="geometry">
            <mxPoint x="200" y="630" as="sourcePoint" />
            <mxPoint x="380" y="630" as="targetPoint" />
          </mxGeometry>
        </mxCell>
        <mxCell id="gIHeh3CCxM96vGAU3SsX-19" value="Reject_objection()" style="edgeLabel;html=1;align=center;verticalAlign=middle;resizable=0;points=[];" parent="gIHeh3CCxM96vGAU3SsX-18" vertex="1" connectable="0">
          <mxGeometry x="-0.2857" y="-2" relative="1" as="geometry">
            <mxPoint x="12" y="18" as="offset" />
          </mxGeometry>
        </mxCell>
        <mxCell id="gIHeh3CCxM96vGAU3SsX-20" value="" style="endArrow=classic;html=1;rounded=0;" parent="1" edge="1">
          <mxGeometry width="50" height="50" relative="1" as="geometry">
            <mxPoint x="390" y="640" as="sourcePoint" />
            <mxPoint x="580" y="640" as="targetPoint" />
          </mxGeometry>
        </mxCell>
        <mxCell id="gIHeh3CCxM96vGAU3SsX-21" value="Req_remove_objection()" style="edgeLabel;html=1;align=center;verticalAlign=middle;resizable=0;points=[];" parent="gIHeh3CCxM96vGAU3SsX-20" vertex="1" connectable="0">
          <mxGeometry x="-0.2857" y="-2" relative="1" as="geometry">
            <mxPoint x="12" y="18" as="offset" />
          </mxGeometry>
        </mxCell>
        <mxCell id="gIHeh3CCxM96vGAU3SsX-22" value="" style="rounded=0;whiteSpace=wrap;html=1;fontSize=12;" parent="1" vertex="1">
          <mxGeometry x="580" y="650" width="30" height="30" as="geometry" />
        </mxCell>
        <mxCell id="gIHeh3CCxM96vGAU3SsX-23" value="Remove objection" style="text;html=1;align=center;verticalAlign=middle;resizable=0;points=[];autosize=1;strokeColor=none;fillColor=none;fontSize=12;" parent="1" vertex="1">
          <mxGeometry x="610" y="650" width="120" height="30" as="geometry" />
        </mxCell>
        <mxCell id="gIHeh3CCxM96vGAU3SsX-24" value="" style="endArrow=classic;html=1;rounded=0;dashed=1;" parent="1" edge="1">
          <mxGeometry width="50" height="50" relative="1" as="geometry">
            <mxPoint x="580" y="710" as="sourcePoint" />
            <mxPoint x="390" y="710" as="targetPoint" />
          </mxGeometry>
        </mxCell>
        <mxCell id="gIHeh3CCxM96vGAU3SsX-26" value="" style="endArrow=classic;html=1;rounded=0;dashed=1;" parent="1" edge="1">
          <mxGeometry width="50" height="50" relative="1" as="geometry">
            <mxPoint x="390" y="730" as="sourcePoint" />
            <mxPoint x="200" y="730" as="targetPoint" />
          </mxGeometry>
        </mxCell>
        <mxCell id="gIHeh3CCxM96vGAU3SsX-27" value="Objection removed succesfully" style="edgeLabel;html=1;align=center;verticalAlign=middle;resizable=0;points=[];" parent="gIHeh3CCxM96vGAU3SsX-26" vertex="1" connectable="0">
          <mxGeometry x="0.2917" y="2" relative="1" as="geometry">
            <mxPoint x="23" y="8" as="offset" />
          </mxGeometry>
        </mxCell>
        <mxCell id="gIHeh3CCxM96vGAU3SsX-30" value="Objection removed from DB" style="edgeLabel;html=1;align=center;verticalAlign=middle;resizable=0;points=[];" parent="1" vertex="1" connectable="0">
          <mxGeometry x="479.9971428571429" y="720" as="geometry" />
        </mxCell>
      </root>
    </mxGraphModel>
  </diagram>
  <diagram id="p2ir_yxTSJD3jYTY9Hvk" name="Add new record">
    <mxGraphModel dx="2954" dy="1107" grid="1" gridSize="10" guides="1" tooltips="1" connect="1" arrows="1" fold="1" page="1" pageScale="1" pageWidth="850" pageHeight="1100" math="0" shadow="0">
      <root>
        <mxCell id="0" />
        <mxCell id="1" parent="0" />
        <mxCell id="kDJPuWCW6-MVGh3LuwtU-1" value="Application" style="rounded=1;whiteSpace=wrap;html=1;" parent="1" vertex="1">
          <mxGeometry x="325" y="130" width="120" height="60" as="geometry" />
        </mxCell>
        <mxCell id="kDJPuWCW6-MVGh3LuwtU-2" value="Backend" style="rounded=1;whiteSpace=wrap;html=1;" parent="1" vertex="1">
          <mxGeometry x="520" y="130" width="120" height="60" as="geometry" />
        </mxCell>
        <mxCell id="kDJPuWCW6-MVGh3LuwtU-3" value="" style="endArrow=none;dashed=1;html=1;rounded=0;" parent="1" edge="1">
          <mxGeometry width="50" height="50" relative="1" as="geometry">
            <mxPoint x="210" y="500" as="sourcePoint" />
            <mxPoint x="210" y="190" as="targetPoint" />
          </mxGeometry>
        </mxCell>
        <mxCell id="kDJPuWCW6-MVGh3LuwtU-4" value="Adminstration" style="shape=umlActor;verticalLabelPosition=bottom;verticalAlign=top;html=1;outlineConnect=0;" parent="1" vertex="1">
          <mxGeometry x="190" y="110" width="30" height="60" as="geometry" />
        </mxCell>
        <mxCell id="kDJPuWCW6-MVGh3LuwtU-5" value="" style="endArrow=none;dashed=1;html=1;rounded=0;" parent="1" edge="1">
          <mxGeometry width="50" height="50" relative="1" as="geometry">
            <mxPoint x="580" y="500" as="sourcePoint" />
            <mxPoint x="579" y="190" as="targetPoint" />
          </mxGeometry>
        </mxCell>
        <mxCell id="kDJPuWCW6-MVGh3LuwtU-9" value="" style="endArrow=none;html=1;rounded=0;dashed=1;" parent="1" edge="1">
          <mxGeometry width="50" height="50" relative="1" as="geometry">
            <mxPoint x="380" y="500" as="sourcePoint" />
            <mxPoint x="380" y="190" as="targetPoint" />
          </mxGeometry>
        </mxCell>
        <mxCell id="kDJPuWCW6-MVGh3LuwtU-34" value="" style="endArrow=classic;html=1;rounded=0;" parent="1" edge="1">
          <mxGeometry width="50" height="50" relative="1" as="geometry">
            <mxPoint x="210" y="270" as="sourcePoint" />
            <mxPoint x="380" y="270" as="targetPoint" />
          </mxGeometry>
        </mxCell>
        <mxCell id="9KBGjOvcjPvilsGb8oK8-9" value="Add_record_page()" style="edgeLabel;html=1;align=center;verticalAlign=middle;resizable=0;points=[];" parent="kDJPuWCW6-MVGh3LuwtU-34" vertex="1" connectable="0">
          <mxGeometry x="-0.1322" y="-1" relative="1" as="geometry">
            <mxPoint y="-11" as="offset" />
          </mxGeometry>
        </mxCell>
        <mxCell id="kDJPuWCW6-MVGh3LuwtU-35" value="" style="endArrow=classic;html=1;rounded=0;dashed=1;" parent="1" edge="1">
          <mxGeometry width="50" height="50" relative="1" as="geometry">
            <mxPoint x="380" y="300" as="sourcePoint" />
            <mxPoint x="210" y="300" as="targetPoint" />
          </mxGeometry>
        </mxCell>
        <mxCell id="9KBGjOvcjPvilsGb8oK8-10" value="Display_reconrds_adding_menu()" style="edgeLabel;html=1;align=center;verticalAlign=middle;resizable=0;points=[];" parent="kDJPuWCW6-MVGh3LuwtU-35" vertex="1" connectable="0">
          <mxGeometry x="0.0818" y="-2" relative="1" as="geometry">
            <mxPoint x="12" y="12" as="offset" />
          </mxGeometry>
        </mxCell>
        <mxCell id="kDJPuWCW6-MVGh3LuwtU-36" value="" style="endArrow=classic;html=1;rounded=0;" parent="1" edge="1">
          <mxGeometry width="50" height="50" relative="1" as="geometry">
            <mxPoint x="210" y="340" as="sourcePoint" />
            <mxPoint x="380" y="340" as="targetPoint" />
          </mxGeometry>
        </mxCell>
        <mxCell id="9KBGjOvcjPvilsGb8oK8-11" value="Add_new_record(stu_id, evidence)" style="edgeLabel;html=1;align=center;verticalAlign=middle;resizable=0;points=[];" parent="kDJPuWCW6-MVGh3LuwtU-36" vertex="1" connectable="0">
          <mxGeometry x="-0.1602" y="1" relative="1" as="geometry">
            <mxPoint x="9" y="11" as="offset" />
          </mxGeometry>
        </mxCell>
        <mxCell id="kDJPuWCW6-MVGh3LuwtU-37" value="" style="endArrow=classic;html=1;rounded=0;" parent="1" edge="1">
          <mxGeometry width="50" height="50" relative="1" as="geometry">
            <mxPoint x="380" y="369.52" as="sourcePoint" />
            <mxPoint x="580" y="369.52" as="targetPoint" />
          </mxGeometry>
        </mxCell>
        <mxCell id="9KBGjOvcjPvilsGb8oK8-12" value="Req_add_record()" style="edgeLabel;html=1;align=center;verticalAlign=middle;resizable=0;points=[];" parent="kDJPuWCW6-MVGh3LuwtU-37" vertex="1" connectable="0">
          <mxGeometry x="-0.2386" y="2" relative="1" as="geometry">
            <mxPoint as="offset" />
          </mxGeometry>
        </mxCell>
        <mxCell id="9KBGjOvcjPvilsGb8oK8-1" value="" style="rounded=1;whiteSpace=wrap;html=1;fontSize=12;fillColor=none;" parent="1" vertex="1">
          <mxGeometry x="580" y="380" width="30" height="30" as="geometry" />
        </mxCell>
        <mxCell id="9KBGjOvcjPvilsGb8oK8-2" value="Add violation record" style="text;html=1;strokeColor=none;fillColor=none;align=center;verticalAlign=middle;whiteSpace=wrap;rounded=0;" parent="1" vertex="1">
          <mxGeometry x="610" y="380" width="90" height="30" as="geometry" />
        </mxCell>
        <mxCell id="9KBGjOvcjPvilsGb8oK8-3" value="" style="endArrow=classic;html=1;rounded=0;dashed=1;" parent="1" edge="1">
          <mxGeometry width="50" height="50" relative="1" as="geometry">
            <mxPoint x="580" y="420" as="sourcePoint" />
            <mxPoint x="380" y="420" as="targetPoint" />
          </mxGeometry>
        </mxCell>
        <mxCell id="Q6RjbRFw4yg0AjsImK95-1" value="Record_added()" style="edgeLabel;html=1;align=center;verticalAlign=middle;resizable=0;points=[];" parent="9KBGjOvcjPvilsGb8oK8-3" vertex="1" connectable="0">
          <mxGeometry x="0.299" y="2" relative="1" as="geometry">
            <mxPoint x="10" as="offset" />
          </mxGeometry>
        </mxCell>
        <mxCell id="9KBGjOvcjPvilsGb8oK8-4" value="" style="endArrow=classic;html=1;rounded=0;dashed=1;" parent="1" edge="1">
          <mxGeometry width="50" height="50" relative="1" as="geometry">
            <mxPoint x="380" y="440" as="sourcePoint" />
            <mxPoint x="210" y="440" as="targetPoint" />
          </mxGeometry>
        </mxCell>
        <mxCell id="Q6RjbRFw4yg0AjsImK95-2" value="Display_record_number()" style="edgeLabel;html=1;align=center;verticalAlign=middle;resizable=0;points=[];" parent="9KBGjOvcjPvilsGb8oK8-4" vertex="1" connectable="0">
          <mxGeometry x="-0.0992" relative="1" as="geometry">
            <mxPoint as="offset" />
          </mxGeometry>
        </mxCell>
      </root>
    </mxGraphModel>
  </diagram>
  <diagram id="sxrmd0PBoI87021LhMNR" name="Removed: Pending fines ">
    <mxGraphModel dx="1234" dy="1155" grid="1" gridSize="10" guides="1" tooltips="1" connect="1" arrows="1" fold="1" page="1" pageScale="1" pageWidth="850" pageHeight="1100" math="0" shadow="0">
      <root>
        <mxCell id="0" />
        <mxCell id="1" parent="0" />
        <mxCell id="yn3p_eFplJs1OjK9pgn2-1" value="Application" style="rounded=1;whiteSpace=wrap;html=1;" vertex="1" parent="1">
          <mxGeometry x="325" y="130" width="120" height="60" as="geometry" />
        </mxCell>
        <mxCell id="yn3p_eFplJs1OjK9pgn2-2" value="Backend" style="rounded=1;whiteSpace=wrap;html=1;" vertex="1" parent="1">
          <mxGeometry x="520" y="130" width="120" height="60" as="geometry" />
        </mxCell>
        <mxCell id="yn3p_eFplJs1OjK9pgn2-3" value="" style="endArrow=none;dashed=1;html=1;rounded=0;exitX=0.159;exitY=1.035;exitDx=0;exitDy=0;exitPerimeter=0;" edge="1" parent="1" source="yn3p_eFplJs1OjK9pgn2-8">
          <mxGeometry width="50" height="50" relative="1" as="geometry">
            <mxPoint x="210" y="800" as="sourcePoint" />
            <mxPoint x="210" y="190" as="targetPoint" />
          </mxGeometry>
        </mxCell>
        <mxCell id="yn3p_eFplJs1OjK9pgn2-4" value="student" style="shape=umlActor;verticalLabelPosition=bottom;verticalAlign=top;html=1;outlineConnect=0;" vertex="1" parent="1">
          <mxGeometry x="190" y="110" width="30" height="60" as="geometry" />
        </mxCell>
        <mxCell id="yn3p_eFplJs1OjK9pgn2-5" value="" style="endArrow=none;dashed=1;html=1;rounded=0;exitX=0.746;exitY=1.043;exitDx=0;exitDy=0;exitPerimeter=0;" edge="1" parent="1" source="yn3p_eFplJs1OjK9pgn2-8">
          <mxGeometry width="50" height="50" relative="1" as="geometry">
            <mxPoint x="579" y="790" as="sourcePoint" />
            <mxPoint x="579" y="190" as="targetPoint" />
          </mxGeometry>
        </mxCell>
        <mxCell id="yn3p_eFplJs1OjK9pgn2-6" value="" style="endArrow=classic;html=1;rounded=0;" edge="1" parent="1">
          <mxGeometry width="50" height="50" relative="1" as="geometry">
            <mxPoint x="210" y="270" as="sourcePoint" />
            <mxPoint x="380" y="270" as="targetPoint" />
            <Array as="points">
              <mxPoint x="310" y="270" />
            </Array>
          </mxGeometry>
        </mxCell>
        <mxCell id="yn3p_eFplJs1OjK9pgn2-7" value="Access_pending_fines()" style="edgeLabel;html=1;align=center;verticalAlign=middle;resizable=0;points=[];" vertex="1" connectable="0" parent="yn3p_eFplJs1OjK9pgn2-6">
          <mxGeometry x="-0.2727" y="-1" relative="1" as="geometry">
            <mxPoint x="18" y="-11" as="offset" />
          </mxGeometry>
        </mxCell>
        <mxCell id="yn3p_eFplJs1OjK9pgn2-8" value="opt" style="shape=umlFrame;whiteSpace=wrap;html=1;pointerEvents=0;fontSize=12;" vertex="1" parent="1">
          <mxGeometry x="110" y="345" width="630" height="285" as="geometry" />
        </mxCell>
        <mxCell id="yn3p_eFplJs1OjK9pgn2-9" value="" style="endArrow=none;html=1;rounded=0;dashed=1;" edge="1" parent="1">
          <mxGeometry width="50" height="50" relative="1" as="geometry">
            <mxPoint x="380" y="640" as="sourcePoint" />
            <mxPoint x="380" y="190" as="targetPoint" />
          </mxGeometry>
        </mxCell>
        <mxCell id="yn3p_eFplJs1OjK9pgn2-10" value="[apply the fine]" style="text;html=1;strokeColor=none;fillColor=none;align=center;verticalAlign=middle;whiteSpace=wrap;rounded=0;" vertex="1" parent="1">
          <mxGeometry x="120" y="390" width="90" height="30" as="geometry" />
        </mxCell>
        <mxCell id="yn3p_eFplJs1OjK9pgn2-11" value="" style="endArrow=classic;html=1;rounded=0;dashed=1;" edge="1" parent="1">
          <mxGeometry width="50" height="50" relative="1" as="geometry">
            <mxPoint x="380" y="300" as="sourcePoint" />
            <mxPoint x="210" y="300" as="targetPoint" />
          </mxGeometry>
        </mxCell>
        <mxCell id="yn3p_eFplJs1OjK9pgn2-12" value="Display_pending_fines()" style="edgeLabel;html=1;align=center;verticalAlign=middle;resizable=0;points=[];" vertex="1" connectable="0" parent="yn3p_eFplJs1OjK9pgn2-11">
          <mxGeometry x="0.302" y="5" relative="1" as="geometry">
            <mxPoint x="21" y="-15" as="offset" />
          </mxGeometry>
        </mxCell>
        <mxCell id="yn3p_eFplJs1OjK9pgn2-13" value="" style="endArrow=classic;html=1;rounded=0;" edge="1" parent="1">
          <mxGeometry width="50" height="50" relative="1" as="geometry">
            <mxPoint x="210" y="420" as="sourcePoint" />
            <mxPoint x="380" y="420" as="targetPoint" />
            <Array as="points">
              <mxPoint x="300" y="420" />
            </Array>
          </mxGeometry>
        </mxCell>
        <mxCell id="yn3p_eFplJs1OjK9pgn2-14" value="apply_fine()" style="edgeLabel;html=1;align=center;verticalAlign=middle;resizable=0;points=[];" vertex="1" connectable="0" parent="yn3p_eFplJs1OjK9pgn2-13">
          <mxGeometry x="-0.2431" y="-2" relative="1" as="geometry">
            <mxPoint x="16" y="-12" as="offset" />
          </mxGeometry>
        </mxCell>
        <mxCell id="yn3p_eFplJs1OjK9pgn2-15" value="" style="endArrow=classic;html=1;rounded=0;" edge="1" parent="1">
          <mxGeometry width="50" height="50" relative="1" as="geometry">
            <mxPoint x="380" y="440" as="sourcePoint" />
            <mxPoint x="580" y="440" as="targetPoint" />
          </mxGeometry>
        </mxCell>
        <mxCell id="yn3p_eFplJs1OjK9pgn2-16" value="req_application()" style="edgeLabel;html=1;align=center;verticalAlign=middle;resizable=0;points=[];" vertex="1" connectable="0" parent="yn3p_eFplJs1OjK9pgn2-15">
          <mxGeometry x="0.3933" y="-1" relative="1" as="geometry">
            <mxPoint x="-39" y="-11" as="offset" />
          </mxGeometry>
        </mxCell>
        <mxCell id="yn3p_eFplJs1OjK9pgn2-17" value="" style="endArrow=classic;html=1;rounded=0;dashed=1;" edge="1" parent="1">
          <mxGeometry width="50" height="50" relative="1" as="geometry">
            <mxPoint x="580" y="470" as="sourcePoint" />
            <mxPoint x="380" y="470" as="targetPoint" />
          </mxGeometry>
        </mxCell>
        <mxCell id="yn3p_eFplJs1OjK9pgn2-18" value="fine_applied()" style="edgeLabel;html=1;align=center;verticalAlign=middle;resizable=0;points=[];" vertex="1" connectable="0" parent="yn3p_eFplJs1OjK9pgn2-17">
          <mxGeometry x="-0.3933" y="3" relative="1" as="geometry">
            <mxPoint x="-39" y="-13" as="offset" />
          </mxGeometry>
        </mxCell>
        <mxCell id="yn3p_eFplJs1OjK9pgn2-19" value="" style="rounded=1;whiteSpace=wrap;html=1;fontSize=12;fillColor=none;" vertex="1" parent="1">
          <mxGeometry x="580" y="440" width="30" height="30" as="geometry" />
        </mxCell>
        <mxCell id="yn3p_eFplJs1OjK9pgn2-20" value="save applied fine" style="text;html=1;strokeColor=none;fillColor=none;align=center;verticalAlign=middle;whiteSpace=wrap;rounded=0;" vertex="1" parent="1">
          <mxGeometry x="610" y="440" width="100" height="30" as="geometry" />
        </mxCell>
        <mxCell id="yn3p_eFplJs1OjK9pgn2-21" value="[cancel the fine]" style="text;html=1;strokeColor=none;fillColor=none;align=center;verticalAlign=middle;whiteSpace=wrap;rounded=0;" vertex="1" parent="1">
          <mxGeometry x="120" y="510" width="90" height="30" as="geometry" />
        </mxCell>
        <mxCell id="yn3p_eFplJs1OjK9pgn2-22" value="" style="endArrow=classic;html=1;rounded=0;" edge="1" parent="1">
          <mxGeometry width="50" height="50" relative="1" as="geometry">
            <mxPoint x="210" y="540" as="sourcePoint" />
            <mxPoint x="380" y="540" as="targetPoint" />
            <Array as="points">
              <mxPoint x="300" y="540" />
            </Array>
          </mxGeometry>
        </mxCell>
        <mxCell id="yn3p_eFplJs1OjK9pgn2-23" value="cancel_fine()" style="edgeLabel;html=1;align=center;verticalAlign=middle;resizable=0;points=[];" vertex="1" connectable="0" parent="yn3p_eFplJs1OjK9pgn2-22">
          <mxGeometry x="-0.2431" y="-2" relative="1" as="geometry">
            <mxPoint x="16" y="-12" as="offset" />
          </mxGeometry>
        </mxCell>
        <mxCell id="yn3p_eFplJs1OjK9pgn2-24" value="" style="endArrow=classic;html=1;rounded=0;" edge="1" parent="1">
          <mxGeometry width="50" height="50" relative="1" as="geometry">
            <mxPoint x="380" y="560" as="sourcePoint" />
            <mxPoint x="580" y="560" as="targetPoint" />
          </mxGeometry>
        </mxCell>
        <mxCell id="yn3p_eFplJs1OjK9pgn2-25" value="req_cancelation()" style="edgeLabel;html=1;align=center;verticalAlign=middle;resizable=0;points=[];" vertex="1" connectable="0" parent="yn3p_eFplJs1OjK9pgn2-24">
          <mxGeometry x="0.3933" y="-1" relative="1" as="geometry">
            <mxPoint x="-39" y="-11" as="offset" />
          </mxGeometry>
        </mxCell>
        <mxCell id="yn3p_eFplJs1OjK9pgn2-26" value="" style="endArrow=classic;html=1;rounded=0;dashed=1;" edge="1" parent="1">
          <mxGeometry width="50" height="50" relative="1" as="geometry">
            <mxPoint x="580" y="590" as="sourcePoint" />
            <mxPoint x="380" y="590" as="targetPoint" />
          </mxGeometry>
        </mxCell>
        <mxCell id="yn3p_eFplJs1OjK9pgn2-27" value="fine_cancelled()" style="edgeLabel;html=1;align=center;verticalAlign=middle;resizable=0;points=[];" vertex="1" connectable="0" parent="yn3p_eFplJs1OjK9pgn2-26">
          <mxGeometry x="-0.3933" y="3" relative="1" as="geometry">
            <mxPoint x="-39" y="-13" as="offset" />
          </mxGeometry>
        </mxCell>
        <mxCell id="yn3p_eFplJs1OjK9pgn2-28" value="" style="rounded=1;whiteSpace=wrap;html=1;fontSize=12;fillColor=none;" vertex="1" parent="1">
          <mxGeometry x="580" y="560" width="30" height="30" as="geometry" />
        </mxCell>
        <mxCell id="yn3p_eFplJs1OjK9pgn2-29" value="delete cancelled fine" style="text;html=1;strokeColor=none;fillColor=none;align=center;verticalAlign=middle;whiteSpace=wrap;rounded=0;" vertex="1" parent="1">
          <mxGeometry x="610" y="560" width="130" height="30" as="geometry" />
        </mxCell>
        <mxCell id="yn3p_eFplJs1OjK9pgn2-30" value="" style="endArrow=classic;html=1;rounded=0;dashed=1;" edge="1" parent="1">
          <mxGeometry width="50" height="50" relative="1" as="geometry">
            <mxPoint x="380" y="490" as="sourcePoint" />
            <mxPoint x="210" y="490" as="targetPoint" />
            <Array as="points">
              <mxPoint x="300" y="490" />
            </Array>
          </mxGeometry>
        </mxCell>
        <mxCell id="yn3p_eFplJs1OjK9pgn2-31" value="display_success_message()" style="edgeLabel;html=1;align=center;verticalAlign=middle;resizable=0;points=[];" vertex="1" connectable="0" parent="yn3p_eFplJs1OjK9pgn2-30">
          <mxGeometry x="0.1451" y="-3" relative="1" as="geometry">
            <mxPoint x="17" y="-7" as="offset" />
          </mxGeometry>
        </mxCell>
        <mxCell id="yn3p_eFplJs1OjK9pgn2-32" value="" style="endArrow=classic;html=1;rounded=0;dashed=1;" edge="1" parent="1">
          <mxGeometry width="50" height="50" relative="1" as="geometry">
            <mxPoint x="380" y="610" as="sourcePoint" />
            <mxPoint x="210" y="610" as="targetPoint" />
            <Array as="points">
              <mxPoint x="300" y="610" />
            </Array>
          </mxGeometry>
        </mxCell>
        <mxCell id="yn3p_eFplJs1OjK9pgn2-33" value="display_success_message()" style="edgeLabel;html=1;align=center;verticalAlign=middle;resizable=0;points=[];" vertex="1" connectable="0" parent="yn3p_eFplJs1OjK9pgn2-32">
          <mxGeometry x="0.1451" y="-3" relative="1" as="geometry">
            <mxPoint x="17" y="-7" as="offset" />
          </mxGeometry>
        </mxCell>
      </root>
    </mxGraphModel>
  </diagram>
</mxfile>
